<?xml version="1.0" encoding="utf-8"?>
<!-- Generator: Adobe Illustrator 18.1.1, SVG Export Plug-In . SVG Version: 6.00 Build 0)  -->
<svg version="1.1" id="Capa_1" xmlns="http://www.w3.org/2000/svg" xmlns:xlink="http://www.w3.org/1999/xlink" x="0px" y="0px"
	 viewBox="0 0 1190.55 841.89" enable-background="new 0 0 1190.55 841.89" xml:space="preserve">
<path fill="#00CBFE" d="M542.232,473.178c0.697-1.118,2.726-0.834,2.774-2.635c2.265-0.497,2.849-2.624,4.037-4.168
	c7.3-9.486,11.689-20.414,15.651-31.552c0.13-0.701,0.33-1.382,0.579-2.048c1.505-3.16,2.115-6.646,3.555-9.828
	c0.132-0.435,0.298-0.859,0.471-1.278c0.721-1.605,1.583-3.152,2.219-5.217c-0.793,1.558-1.613,2.658-2.167,3.911
	c-0.252,0.621-0.482,1.251-0.797,1.843c-1.488,2.514-2.708,5.138-3.345,8.008c-0.12,0.694-0.291,1.373-0.503,2.044
	c-1.387,3.669-1.907,7.616-3.477,11.208c-0.798,1.826-0.984,4.267-3.616,4.756c-1.087-0.261-2.533,0.046-2.682-1.696
	c-1.852-1.141-2.703-3.13-4.018-4.732c-1.35-1.586-2.221-3.36-2.22-5.49c0.004-2.385-0.195-4.773,0.152-7.149
	c0.661-9.063,5.915-15.43,13.171-19.743c6.788-4.035,14.488-6.254,22.563-6.519c3.937,0.012,7.872-0.027,11.805,0.018
	c1.122,0.218,1.933,0.843,2.429,1.868c1.409,5.311,5.101,9.416,7.568,14.168c0.702,0.886,1.484,1.699,2.287,2.495
	c1.18,1.372,2.824,2.475,2.731,4.603c-1.32,3.208-2.759,6.357-4.718,9.243c-3.471,3.419-6.696,7.094-10.482,10.199
	c-0.867,0.537-1.774,0.963-2.811,1.051c-0.845-0.022-1.56-0.293-2.027-1.049c-0.748-1.544-0.763-3.169-0.537-4.82
	c0.855-5.403-0.667-10.664-0.953-15.991c-1.199-2.012-0.472-4.466-1.472-6.531c0.932,2.073,0.2,4.5,1.397,6.523
	c0.253,2.821,0.348,5.656,1.092,8.41c0.145,2.162,0.14,4.323,0.009,6.482c-0.779,2.555-0.359,5.256-0.917,7.838
	c-0.452,1.454-0.701,2.941-0.676,4.47c-0.008,1.246-0.342,2.453-0.44,3.688c-0.543,2.083-1.108,4.163-1.577,6.267
	c-0.171,0.683-0.334,1.37-0.554,2.04c-0.635,1.478-1.369,2.921-1.634,4.536c-1.982,5.609-4.554,10.888-8.612,15.329
	c-0.993,1.547-1.748,3.315-3.694,3.978c-0.161,0.14-0.348,0.196-0.559,0.169c-1.113,0.786-2.189,0.621-3.249-0.114
	c-0.568-0.4-1.057-0.885-1.488-1.428c-1.607-1.883-0.163-3.226,0.826-4.649c0.496-0.597,0.903-1.257,1.22-1.907
	c0.137-0.103,0.222-0.177,0.222-0.177c-0.285-0.252-0.411-0.185-0.393,0.235c-0.35,0.722-0.758,1.361-1.251,1.958
	c-1.35,2.378-3.362,3.527-6.101,3.363c-1.247,0.015-2.482-0.089-3.694-0.392c-2.044-0.651-4.084-1.327-6.108-2.044
	c-2.827-1.132-4.838-3.378-7.134-5.236c-1.013-1.118-2.079-2.19-3.132-3.276C541.717,473.779,541.811,473.434,542.232,473.178z"/>
<path fill="#01CBFD" d="M592.06,445.889c0.597,0,1.195-0.001,1.792-0.001c1.499,0.13,2.922-0.089,4.206-0.937
	c3.964-1.663,5.642-5.493,8.128-8.559c2.145-0.856,3.064,0.533,3.878,2.113c0.577,1.018,0.771,2.221,1.519,3.157
	c0.954,1.58,1.355,3.405,2.221,5.026c3.06,5.906,6.29,11.715,9.774,17.381c0.798,1.388,1.926,2.503,3.036,3.632
	c3.136,4.092,6.214,8.233,10.091,11.688c3.465,3.926,8.079,6.08,12.693,8.247c0.668,0.837,1.336,1.675,0.317,2.709
	c-0.727,0.447-1.54,0.503-2.359,0.537c-4.106,0.502-8.215,0.566-12.324,0.122c-2.35-0.445-4.466-1.909-6.986-1.633
	c-1.56,0.391-2.655,1.797-4.308,1.993c-4.407-0.618-6.997-4.649-11.079-5.886c-7.112-5.46-11.813-12.588-14.559-21.067
	c-0.371-0.323-0.742-0.646-1.113-0.969c0.184-2.304-0.886-4.287-1.628-6.355c-0.255-0.625-0.309-1.287-0.367-1.948
	c-0.497-1.668-0.933-3.354-1.434-5.022c-0.053-0.911-0.21-1.751-1.325-1.943C591.407,447.468,591.302,446.71,592.06,445.889z"/>
<path fill="#01CAFD" d="M498.972,441.077c-1.579-0.493-3.158-0.985-4.737-1.478c-1.83-0.686-3.601-1.494-5.233-2.576
	c-1.126-2.83,0.899-2.909,2.743-3.115c4.581-0.511,9.169-0.494,13.758-0.125c0.327,0.026,0.652,0.078,0.98,0.093
	c-0.077-0.195-0.268-0.074-0.435-0.139c-1.403-0.438-2.808-0.5-4.223-0.505c-4.072,0.561-7.465-2.159-11.383-2.335l0.099,0.053
	c-1.412-0.997-2.843-1.969-4.235-3.003c-0.832-1.146-1.422-2.292-0.015-3.445c2.408-0.27,4.873,0.208,7.24-0.574
	c2.129,0.117,4.046,1.111,6.111,1.488c2.288,0.856,4.574,1.743,7.093,1.479c1.715-0.133,3.463,0.282,5.071-0.246
	c-1.424,0.526-2.809,0.089-4.164,0.235c-2.52,0.189-4.925-0.256-7.228-1.279c-2.355-0.691-4.744-1.298-6.851-2.636
	c-1.956-1.456-4.301-2.28-6.229-3.793c-1.545-1.815-2.785-3.565,0.916-4.242c1.799-0.031,3.599-0.098,5.394,0.089
	c2.164,0.485,4.183,1.564,6.464,1.576c2.927,0.187,5.559,1.631,8.451,1.964c0.572-1.289,3.743,3.016,2.87-1.366
	c0.184-1.87,1.559-2.241,3.051-2.473c1.133-0.119,2.281-0.038,3.412-0.209c1.105-0.179,1.94-1.043,3.049-1.22
	c0.459-0.031,0.903,0.039,1.337,0.187c2.732,2.037,5.557,3.945,8.305,5.963c4.671,4.484,10.523,7.364,15.51,11.418l-0.067-0.066
	c0.736,0.426,1.453,0.87,1.778,1.723c0.594,1.992,0.694,3.927-0.669,5.691c-4.228,1.673-8.625,2.658-13.138,3.171
	c-9.042,2.596-18.211,1.536-27.362,0.977C504.112,441.755,501.503,441.646,498.972,441.077z"/>
<path fill="#090603" d="M696.058,394.018c6.628,2.155,13.585,1.325,20.345,2.266c1.867,0.26,4.644-0.489,5.353,1.248
	c0.744,1.823-1.643,3.393-2.929,4.808c-5.43,5.975-11.636,10.802-19.799,12.477c-0.134-0.19-0.269-0.379-0.404-0.569
	c-0.143-2.122,1.662-2.544,2.958-3.414c0.57-0.312,1.154-0.602,1.82-0.814c-1.014-0.345-1.93,0.282-2.898,0.186
	c-4.843,0.057-9.676,0.177-14.502-0.052c-4.464-0.97-9.104-1.287-13.265-3.461c-1.636-0.855-3.139-0.871-4.232,0.919
	c-0.636,0.588-1.361,0.798-2.204,0.536c-3.912-6.889-0.91-13.941,6.271-14.764c0.415,0.277,0.987,0.72,0.817,1.129
	c-2.154,5.187,1.386,7.055,5.163,7.972c11.957,2.903,23.937,4.318,35.367-1.977c-1.527-0.767-3.102-0.212-4.625-0.326
	c-1.6-0.119-3.163,0.26-4.733,0.565c-4.896-1.848-11.041-0.367-14.699-5.511c-0.362-1.371,0.548-1.865,1.57-2.288
	c1.514-0.36,3.03-0.764,4.6-0.288C696.445,393.103,696.454,393.557,696.058,394.018z"/>
<path fill="#030506" d="M598.168,405.871c-0.367-0.683-0.733-1.366-1.1-2.049c-1.483-1.006-0.074-2.659-0.855-3.822
	c-3.849-15.893,1.616-29.02,12.434-40.281c7.882-8.205,17.302-14.261,28.161-17.92c1.748-0.512,1.618,0.737,1.692,1.797
	c-2.896,4.231-8.018,5.105-11.905,7.862c-11.98,8.497-22.895,17.735-26.341,33.078c-1.011,4.503-1.345,8.862-0.067,13.301
	c0.6,2.085,1.267,4.154,0.836,6.377C600.509,405.52,600.021,406.879,598.168,405.871z"/>
<path fill="#03C8F9" d="M522.062,474.789c1.013,0.388,2.025,0.776,3.038,1.163c1.066,0.373,1.564,1.28,2.069,2.182
	c0.635,1.076,1.759,1.716,2.464,2.733c1.066,1.825,2.007,3.737,3.686,5.116c0.656,0.54,1.378,0.987,2.091,1.446
	c1.556,1.226,3.326,2.031,5.199,2.653c0.444,0.197,0.843,0.45,1.223,0.75c0.837,0.92,1.936,1.756,1.06,3.233
	c-2.951,1.545-6.096,0.596-9.158,0.714c-1.76-0.361-3.264-1.301-4.818-2.127c-4.109-2.632-7.649-5.892-10.669-9.729
	c-1.18-2.517-2.463-4.998-2.83-7.815C517.472,471.735,519.767,473.266,522.062,474.789z"/>
<path fill="#0B1115" d="M605.912,434.685c1.62-2.982,3.239-5.964,4.859-8.946c0.876-0.883,1.421-2.215,2.97-2.19
	c4.14,1.202,7.4,4.173,11.719,5.271c7.578,1.926,15.009,2.415,22.585,0.454c0.965-0.25,1.959-0.359,2.946-0.141
	c1.918,0.293,0.388,2.091,1.233,2.861c-12.566,4.644-24.767,3.915-36.218-3.13c-2.944-1.811-3.937-1.822-4.909,1.529
	c-0.52,1.792-2.316,3.194-1.725,5.382c-0.997,0.932-2.148,0.583-3.279,0.391C605.558,435.73,605.498,435.236,605.912,434.685z"/>
<path fill="#07BEEB" d="M535.189,476.129c0.251-0.182,0.507-0.191,0.77-0.028c1.191,0.884,2.707,1.291,3.683,2.496
	c1.465,1.871,1.93,4.309,3.485,6.132c0.675,2.567,3.026,3.654,4.717,5.328c0.282,0.388,0.42,0.822,0.439,1.298
	c-0.378,1.053-1.26,1.325-2.237,1.453c-0.472,0.024-0.94-0.016-1.403-0.111c-1.246-0.582-2.55-1.057-3.697-1.845l0.097,0.075
	c-1.733-1.238-3.979-1.68-5.37-3.45c-0.806-0.705-1.601-1.421-2.356-2.182c-1.243-1.461-3.149-2.334-3.832-4.296
	c-0.421-1.326-1.796-2.084-2.079-3.494c-0.081-0.755,0.085-1.422,0.689-1.933C530.544,474.682,532.879,475.253,535.189,476.129z"/>
<path fill="#081116" d="M546.802,431.968c-0.572-0.183-1.074-0.412-0.777-1.171c0.634-1.277,1.58-2.491,1.852-3.841
	c2.818-13.984,15.595-23.161,30.936-24.165c1.568-0.684,3.202-0.326,4.814-0.301c0.581,0.318,0.687,0.752,0.319,1.302
	c-7.285,0.924-14.5,2.589-20.734,6.372c-6.915,4.197-12.346,10.031-13.346,18.724c-0.885,2.219-0.024,4.574-0.53,6.823
	c-0.371,0.419-0.826,0.552-1.365,0.399C546.866,434.932,548.323,433.029,546.802,431.968z"/>
<path fill="#0A1318" d="M692.996,416.71c-3.214,0.807-6.477,1.665-9.784,1.16c-3.396-0.518-5.094,2.258-7.093,3.754
	c-5.834,4.366-12.268,7.113-19.151,9.085c-0.937-0.727-2.414,0.294-3.183-0.982c0.378-2.278,2.357-2.505,4.019-3.034
	c4.096-1.302,7.704-3.646,11.614-5.319c2.966-1.269,3.944-4.052,5.674-6.296c2.987-0.956,6.053-0.557,9.097-0.592
	C687.129,415.217,690.846,412.874,692.996,416.71z"/>
<path fill="#030E15" d="M565.791,434.916c-2.732,10.163-7.547,19.394-12.914,28.344c-0.87,1.451-1.949,3.092-3.778,3.772
	c-0.404,0.27-0.754,0.211-1.048-0.176c3.189-6.209,6.377-12.419,9.565-18.63c3.159-5.098,3.789-11.161,6.316-16.499
	C565.166,432.432,564.696,434.13,565.791,434.916z"/>
<path fill="#060F13" d="M676.076,337.818c2.164,1.133,4.92,1.368,6.084,4.015c-0.51,0.661-1.217,0.937-2.013,1.04
	c-1.186,0.091-2.351-0.129-3.414-0.595c-5.116-2.243-10.314-3.516-15.843-1.651c-0.435-0.139-0.793-0.402-1.075-0.754
	c-2.902-1.121-3.05-1.117-6.816,0.178c-3.022,0.938-5.861,2.783-9.253,1.848c-0.661-1.024-0.452-1.969,0.255-2.87
	c8.432-2.688,17.055-3.832,25.897-3.189c0.603-0.468,1.285-0.444,1.983-0.324C673.462,335.952,675.021,336.425,676.076,337.818z"/>
<path fill="#0F1B21" d="M679.752,342.032c0.803-0.066,1.606-0.133,2.408-0.199c9.1,5.506,14.621,13.611,17.073,23.843
	c0.63,2.628,1.405,5.314,0.812,8.096c0.853,1.842,0.303,3.78,0.385,5.67c-0.227,0.551-0.64,0.799-1.234,0.742
	c-2.209-2.212-1.737-5.243-2.27-7.919c-2.127-10.681-6.034-20.295-15.145-27.04C680.717,344.438,679.663,343.581,679.752,342.032z"
	/>
<path fill="#00060A" d="M585.922,463.689c0.089-0.599,0.178-1.197,0.267-1.796c1.813-1.743,0.927-4.228,1.721-6.251
	c0.083-1.25,0.166-2.5,0.249-3.75c0.906-0.701,0.99-2.553,2.795-1.996c-1.682,12.532-3.943,24.83-13.744,34.089
	c-0.427,0.323-0.829,0.312-1.204-0.086c2.731-5.335,5.461-10.669,8.192-16.004C585.366,466.736,585.341,465.088,585.922,463.689z"/>
<path fill="#08B7E4" d="M643.829,472.943c0.444-0.081,0.889-0.163,1.333-0.244c4.511-2.357,4.774-2.249,5.78,2.367
	c0.013,1.065-0.394,1.985-0.993,2.835c-0.886,1.111-1.737,2.255-2.581,3.408c-0.486,0.547-1.064,0.964-1.739,1.249
	c-2.443,0.804-4.19-0.437-5.836-1.985c-0.679-0.697-1.19-1.476-1.172-2.5C639.331,475.324,642.213,474.776,643.829,472.943z"/>
<path fill="#050A0E" d="M570.038,489.956c-3.814,5.163-11.455,6.76-16.598,3.542c-0.646-0.404-1.556-0.386-2.343-0.564
	c-0.218-0.006-0.436-0.011-0.655-0.015c-1.169-0.18-1.978-0.877-2.61-1.824l0.127-0.231c-0.339-0.506-0.274-0.953,0.195-1.342
	c2.088-1.055,4.011,0.022,5.984,0.451c3.107,0.796,6.198,1.164,9.232-0.311c1.181-0.627,2.429-0.974,3.773-0.959
	C568.26,488.765,569.312,488.988,570.038,489.956z"/>
<path fill="#11C0EC" d="M510.136,474.821c0.339,0.022,0.649,0.128,0.931,0.317c1.652,0.657,3.406,1.182,4.08,3.119
	c0.993,1.956,2.213,3.763,3.618,5.451c1.11,1.212,2.415,2.357,1.458,4.271c-1.807,1.175-3.105-0.151-4.523-0.907
	c-1.145-0.735-2.173-1.621-3.174-2.538c-0.954-0.928-2.109-1.618-3.064-2.55c-1.039-1.512-2.557-2.71-3.024-4.6
	C506.543,474.902,508.418,474.975,510.136,474.821z"/>
<path fill="#0E181D" d="M598.099,464.408c3.825,4.545,5.386,10.479,9.527,14.954c1.753,1.895,4.173,3.054,5.493,5.324
	c0.541,1.239-0.151,1.857-1.166,2.311c-5.458-4.562-9.344-10.36-12.787-16.475C598.125,468.675,597.398,466.629,598.099,464.408z"/>
<path fill="#081015" d="M639.112,478.069c0.362,0.579,0.723,1.157,1.085,1.736c-1.359,1.381-2.751,0.951-4.153,0.079
	c-4.391-3.003-7.287-7.315-10.182-11.628c-0.411-1.009-0.545-1.989,0.294-2.869c1.96,2.217,3.925,4.43,5.879,6.652
	c1.112,1.264,2.254,2.426,4.17,1.67c0.396,1.649,1.984,2.116,3.068,3.088C639.448,477.252,639.392,477.675,639.112,478.069z"/>
<path fill="#0C1114" d="M611.953,486.997c0.388-0.77,0.777-1.541,1.166-2.311c4.519,0.448,6.796,4.892,10.884,6.108
	c1.519-0.095,2.984-0.11,3.018,2.017C620.899,493.721,615.7,492.24,611.953,486.997z"/>
<path fill="#091216" d="M546.093,430.862c-6.479-2.044-11.526-6.212-16.2-10.931c0.46-0.855,1.427-0.503,2.088-0.879
	c5.429,2.247,9.028,7.049,13.927,10.047C546.215,429.286,546.042,430.256,546.093,430.862z"/>
<path fill="#01080E" d="M493.647,416.014c-1.877-0.094-3.753-0.188-5.63-0.282c-0.624-0.643-0.52-1.275,0.026-1.902
	c1.948,0.004,3.896,0.008,5.844,0.013c1.473-1.131,3.129-0.687,4.752-0.565c3.502,1.926,7.966,0.632,11.231,3.334
	c0.869,1.369-0.551,2.11-0.881,3.153c-3.006-0.682-6.013-1.365-9.019-2.047C497.927,416.907,495.812,416.368,493.647,416.014z"/>
<path fill="#10171C" d="M622.784,465.073c-3.718-5.809-6.982-11.862-9.793-18.16c0.339-0.43,0.451-1.062,1.091-1.224
	c3.601,6.076,7.202,12.152,10.803,18.229C624.499,464.874,623.936,465.51,622.784,465.073z"/>
<path fill="#090B0D" d="M548.24,435.927c0.244-0.016,0.489-0.026,0.733-0.03c0.427,0.227,0.728,0.565,0.904,1.015
	c0.095,1.916,1.133,3.413,2.181,4.905c0.576,1.05,0.629,1.879-0.866,2.057c-1.985-3.9-4.776-4.763-8.887-3.007
	c-2.562,1.095-5.514,1.277-8.291,1.869c-0.882-0.892-0.741-1.786-0.006-2.681c4.458,0.336,8.378-2.336,12.784-2.29
	C547.748,437.527,547.212,436.111,548.24,435.927z"/>
<path fill="#11181A" d="M510.136,474.821c-0.458,1.626-4.19-0.121-3.144,3.052c0.425,0.704-0.003,1.207-0.391,1.723
	c-1.349,1.84,0.647,2.695,1.182,3.973c0.537,1.036,1.262,2.068,0.173,3.192c-2.14-0.692-3.478-2.428-4.699-4.08
	c-1.257-1.7-2.924-3.306-0.437-5.898C505.132,474.375,506.703,471.933,510.136,474.821z"/>
<path fill="#00182F" d="M506.127,432.73c2.076-0.067,4.164-0.208,6.526,0.934c-2.001,1.787-4.05,1.02-5.871,1.105
	c-5.123,0.238-10.254,0.32-15.38,0.493c-1.095,0.037-2.705-0.228-1.486,1.788c0.174,0.821,0.117,1.388-0.938,0.846
	c-0.548,0.037-0.981-0.097-1.079-0.728c-0.404-1.052-0.937-2.075-0.76-3.262c1.392-1.564,3.207-0.733,4.853-0.858
	c3.678-0.688,7.376,0.033,11.058-0.154C504.077,432.891,505.106,432.887,506.127,432.73z"/>
<path fill="#0C0F11" d="M501.838,404.263c-1.797-1.266-2.938-3.075-4.16-4.849c-1.251-1.817-3.026-3.99-1.315-5.752
	c1.846-1.901,3.831,0.39,5.592,1.445c0.387,0.802-0.002,1.558-0.116,2.331c-0.121,1.116,0.646,1.949,0.938,2.936
	c0.207,0.687,0.265,1.382,0.185,2.094C502.825,403.216,502.532,403.866,501.838,404.263z"/>
<path fill="#13BEE9" d="M627.02,492.811c-1.006-0.672-2.012-1.344-3.018-2.017c0.994-0.976,1.989-1.952,2.983-2.928
	c1.732,1.097,3.643,1.713,5.644,2.092c1.849,0.427,3.701,0.826,5.604,0.933c1.244,0.072,2.532-0.144,3.666,0.597
	c0.619,0.647,0.677,1.329,0.123,2.046c-3.051,0.752-6.123,0.607-9.2,0.213c-1.745-1.688-3.949-0.276-5.857-0.866L627.02,492.811z"/>
<path fill="#0B1012" d="M655.88,473.533c3.986-2.614,5.651-2.052,6.063,2.256c0.261,2.733,0.421,5.544-1.059,8.092
	c-0.865,0.161-1.298-0.363-1.643-1.031c-0.685-2.703,0.131-6.161-3.675-7.298C655.306,474.822,655.457,474.156,655.88,473.533z"/>
<path fill="#0D1519" d="M534.006,440.056c0.002,0.894,0.004,1.787,0.006,2.681c-1.24,0.087-2.48,0.173-3.72,0.26
	c-7.627,0.617-15.255,0.639-22.881-0.017c-0.796-0.078-1.591-0.156-2.387-0.233c-0.097-0.972,0.191-1.464,1.246-1.002
	c6.265,0.032,12.529,0.054,18.794,0.102C528.174,441.87,531.199,441.521,534.006,440.056z"/>
<path fill="#265464" d="M545.009,492.007c0.349-0.009,0.699-0.019,1.048-0.028c1.553,0.899,3.477-0.281,4.982,0.887
	c0,0,0.055,0.068,0.056,0.068c-0.108,1.308-0.864,1.821-2.117,1.723c-1.258-0.432-2.529-0.361-3.342-0.221
	c0.225-0.056,0.89-0.131,1.383,0.547c-1.233,0.867-2.628,0.902-4.051,0.79c-2.979-0.642-5.96-0.623-8.941-0.011
	c-1.443,0.117-2.936,0.586-4.194-0.598c0.649-1.457,2.014-1.173,3.203-1.315c3.302-0.104,6.765,1.418,9.839-0.976
	C543.377,492.064,544.367,492.464,545.009,492.007z"/>
<path fill="#010000" d="M503.772,433.734c-3.922-0.311-7.942,1.072-11.78-0.687c1.519-2.183-1.84-0.853-1.549-2.151
	c4.074-1.808,7.618,1.684,11.564,1.156C502.429,432.787,504.508,431.782,503.772,433.734z"/>
<path fill="#1A4E5B" d="M583.947,403.792c0.076-0.281,0.078-0.563,0.006-0.846c-0.34-0.227-0.439-0.427-0.299-0.601
	c0.129-0.16,0.259-0.241,0.391-0.241c3.216-0.071,6.432-0.185,9.648-0.194c1.4-0.004,2.611-0.042,2.518-1.911
	c1.448,1.016,0.701,2.52,0.855,3.824C592.695,403.812,588.321,403.802,583.947,403.792z"/>
<path fill="#0D181C" d="M698.896,379.887c0.356-0.001,0.712-0.001,1.068-0.002c0.296,0.227,0.406,0.468,0.331,0.722
	c-0.077,0.261-0.16,0.391-0.251,0.391c0.998,5.053-1.049,9.173-3.987,13.02c-0.068-0.498-0.137-0.996-0.205-1.495
	C694.636,387.774,696.108,383.672,698.896,379.887z"/>
<path fill="#09171C" d="M514.351,478.771c0.095-2.286-2.535-2.11-3.284-3.634c0.91-0.508,2.113,0.398,2.951-1.124
	c1.671-3.034,5.753-2.541,8.043,0.776c-1.968,0.392-4.529-3.235-5.948,0.878C516.724,477.382,516.585,478.671,514.351,478.771z"/>
<path fill="#0D181E" d="M490.826,409.981c-2.211-1.33-3.406-4.668-2.351-5.544c1.992-1.653,5.133-1.144,7.64,0.393
	c-0.373,0.788-1.094,1.183-1.786,1.606c-0.75,0.463-0.869,1.271-1.087,2.031C492.68,409.365,492.333,410.606,490.826,409.981z"/>
<path fill="#050C14" d="M531.981,419.051c-0.696,0.293-1.392,0.586-2.088,0.879c-3.155-1.315-5.54-3.651-7.931-5.98
	c-0.597-0.792-0.546-1.553,0.112-2.284C525.377,414.128,528.679,416.59,531.981,419.051z"/>
<path fill="#11181B" d="M522.074,411.667c-0.037,0.761-0.075,1.523-0.112,2.284c-0.229-0.13-0.475-0.195-0.738-0.194
	c-3.7-1.504-6.666-3.851-8.555-7.44c0.112-0.785,0.583-1.236,1.332-1.427C516.958,406.832,519.811,408.899,522.074,411.667z"/>
<path fill="#080F14" d="M488.043,413.831c-0.009,0.634-0.018,1.268-0.026,1.902c-3.709,1.06,0.799,1.961,0.057,2.964
	c0.477,0.726,0.542,1.438-0.073,2.127c-2.39-1.868-5.723-3.037-5.227-7.045c1.783-0.571,3.566-0.567,5.35-0.005L488.043,413.831z"/>
<path fill="#171D20" d="M507.411,442.979c7.627,0.006,15.254,0.011,22.881,0.017C522.664,444.273,515.037,444.296,507.411,442.979z"
	/>
<path fill="#1FB4D9" d="M507.956,486.761c0.347-1.168-0.579-1.872-1.006-2.759c-0.584-0.904-0.56-1.703,0.404-2.341
	c0.726-0.154,1.323,0.132,1.878,0.552c1.035,0.812,2.348,1.234,3.235,2.264c0.963,0.921,1.987,1.805,2.045,3.289
	c-0.438,2.114-1.988,1.16-3.194,1.156C510.499,487.732,509.308,487.121,507.956,486.761z"/>
<path fill="#313031" d="M672.276,335.943c-0.793-0.034-1.585-0.069-2.378-0.103c4.857-2.698,9.927-1.422,14.961-0.799
	C680.824,337.562,676.519,336.32,672.276,335.943z"/>
<path fill="#12181B" d="M650.094,475.878c0.758-4.785-2.199-3.808-4.932-3.179c0.697-3.007,3.233-3.191,5.331-2.71
	c2.69,0.618,1.602,3.048,1.389,4.902C651.526,475.655,651.119,476.326,650.094,475.878z"/>
<path fill="#182C35" d="M659.802,482.669c0.361,0.404,0.721,0.807,1.082,1.211c-1.086,3.495-3.462,5.677-6.898,6.782
	c-0.333-0.328-0.565-0.714-0.681-1.169c-0.069-0.71,0.095-1.359,0.515-1.939C656.125,486.311,656.809,483.074,659.802,482.669z"/>
<path fill="#878787" d="M672.276,335.943c4.176-0.554,8.495,0.88,12.584-0.902c0.843,0.364,1.687,0.729,2.812,1.215
	c-3.983,1.4-8.182-1.403-11.596,1.561C674.606,337.606,673.104,337.457,672.276,335.943z"/>
<path fill="#0C1417" d="M533.037,493.849c-0.637,1.491-2.106,0.953-3.204,1.315c-1.944-0.146-3.889-0.293-5.834-0.44
	c-0.314-1.067,0.224-1.738,1.056-2.273c1.474,0.048,2.774-0.875,4.26-0.769C530.839,491.916,531.98,492.81,533.037,493.849z"/>
<path fill="#09090A" d="M644.001,339.029c-0.003,0.855-0.006,1.711-0.009,2.566c-1.483,2.171-3.199,3.68-6,2.121
	c-0.035-0.861-0.358-1.544-1.183-1.916C639.206,340.876,641.604,339.952,644.001,339.029z"/>
<path fill="#342C10" d="M692.996,416.71c-2.899-1.795-6.146-0.134-9.146-0.92c-0.178-0.587-0.017-1.058,0.479-1.416
	c3.606-1.596,7.486-0.331,11.177-1.075c1.477-0.146,2.559,0.608,3.553,1.564c0,0-0.031-0.045-0.031-0.045
	C697.221,416.099,695.135,416.489,692.996,416.71z"/>
<path fill="#18A7CD" d="M638.987,476.751c-2.43,0.36-4.108,0.032-2.782-3.042c0.982-1.564,2.069-2.679,3.83-0.889
	C641.061,474.497,640.9,475.857,638.987,476.751z"/>
<path fill="#0C1B21" d="M505.227,397.783c1.854,0.98,3.548,2.161,4.853,3.836c0.364,0.672,0.528,1.366,0.225,2.11
	c-3.404,0.988-4.697-1.867-6.599-3.621c-0.209-0.473-0.266-0.965-0.178-1.474C503.868,397.902,504.3,397.347,505.227,397.783z"/>
<path fill="#060D11" d="M488.001,420.824c0.024-0.709,0.048-1.418,0.073-2.127c2.152,0.829,4.168,1.891,5.915,3.421
	c0.571,0.713,0.592,1.405-0.08,2.07c-0.785,0.192-1.555,0.304-2.149-0.439C490.506,422.774,489.253,421.799,488.001,420.824z"/>
<path d="M524.959,492.958c-0.32,0.588-0.64,1.177-0.96,1.765c-2.219,0.016-4.168-0.803-6.014-1.941
	c-0.388-1.03,0.155-1.668,0.927-2.21c0.419-0.133,0.849-0.158,1.282-0.085c0.998,0.306,1.952,0.772,3.012,0.892
	C524.069,491.596,524.771,491.994,524.959,492.958z"/>
<path fill="#040F17" d="M501.838,404.263c0.097-0.886,0.193-1.772,0.29-2.658c3.216,0.757,4.25,3.153,4.576,6.084
	c-0.204,0.783-0.636,1.344-1.478,1.501c-1.345-0.289-2.236-1.07-2.601-2.416C502.362,405.938,502.1,405.1,501.838,404.263z"/>
<path fill="#060B0D" d="M590.953,449.895c-0.994,0.578-1.311,2.103-2.795,1.996c-0.068-1.407-0.596-2.869,0.504-4.134
	c1.809-0.908,0.072-3.055,1.443-4.118c0.601-0.11,1.037,0.106,1.312,0.651c-0.077,1.612,0.516,3.271-0.354,4.822
	C591.202,449.398,591.165,449.659,590.953,449.895z"/>
<path fill="#1B2227" d="M486.174,424.923c-0.446,1.279,0.709,1.862,1.192,2.737c-0.162,0.745-0.649,1.134-1.379,1.255
	c-1.917-0.693-2.973-2.182-2.744-4.087c0.18-1.5,1.654-1.141,2.771-0.938c0.317,0.186,0.446,0.401,0.388,0.645
	C486.341,424.794,486.265,424.923,486.174,424.923z"/>
<path fill="#040404" d="M494.022,405.689c0.698-0.286,1.395-0.572,2.093-0.858c1.897-0.036,3.51,0.69,4.958,1.853
	c0.367,0.495,0.357,0.982-0.03,1.463C497.989,409.367,495.783,408.163,494.022,405.689z"/>
<path fill="#2C4E57" d="M535.189,476.129c-2.381,1.353-4.701-1.34-7.081-0.106c-0.39-0.486-0.36-0.945,0.091-1.376
	C530.841,473.67,533.25,473.791,535.189,476.129z"/>
<path fill="#153B4A" d="M638.987,476.751c0.878-1.17,1.236-2.478,1.048-3.931c1.265,0.041,2.53,0.082,3.795,0.123
	c-0.273,2.905-3.326,3.251-4.718,5.126C639.07,477.63,639.029,477.19,638.987,476.751z"/>
<path fill="#050A0D" d="M653.987,489.805c-0.043,0.286-0.043,0.572-0.001,0.858c-2.518,1.575-5.392,1.289-8.159,1.563
	c-0.086-0.169-0.172-0.339-0.258-0.508c-0.022-0.389,0.08-0.742,0.303-1.061c0.664-0.355,1.505-0.124,2.121-0.642
	c0.574-0.097,1.148-0.195,1.722-0.292C651.162,488.578,652.583,488.767,653.987,489.805z"/>
<path fill="#186A80" d="M626.964,492.881c2.038-0.282,4.427-2.945,5.858,0.866C630.843,493.632,628.757,494.251,626.964,492.881z"/>
<path fill="#0B181F" d="M596.116,456.684c0.7,2.199,3.262,4.158,0.87,6.755c-1.186-1.294-1.585-2.907-1.85-4.574
	C595.532,458.169,595.138,457.119,596.116,456.684z"/>
<path fill="#192022" d="M614.082,445.69c-0.364,0.408-0.728,0.815-1.091,1.223c-0.646-1.701-1.293-3.403-1.939-5.104
	c0.187-0.425,0.497-0.721,0.93-0.887C613.246,442.262,614.103,443.783,614.082,445.69z"/>
<path fill="#1E2830" d="M490.826,409.981c0.624-0.692,1.247-1.384,1.871-2.076c1.84,0.668,2.586,2.118,2.819,3.937
	c-0.205,0.741-0.473,1.398-1.462,1.038C492.978,411.914,491.902,410.947,490.826,409.981z"/>
<path fill="#171D20" d="M506.27,441.744c-0.415,0.334-0.831,0.668-1.246,1.002c-2.128-0.156-4.271-0.258-6.052-1.67
	C501.466,440.623,503.936,440.448,506.27,441.744z"/>
<path fill="#329CB9" d="M570.038,489.956c-0.98-0.085-1.959-0.17-2.939-0.255c-0.563-0.762-0.151-1.473,0.108-2.195
	c0.179-0.355,0.422-0.659,0.729-0.912c0.4-0.112,0.758-0.037,1.064,0.252c1.078,0.345,2.156,0.69,3.235,1.034
	C571.785,488.869,571.193,489.711,570.038,489.956z"/>
<path fill="#1C3D49" d="M518.804,490.893c-0.273,0.63-0.545,1.26-0.819,1.89c-1.055-0.491-2.109-0.981-3.163-1.471
	c-0.38-0.738-0.557-1.492-0.166-2.287C516.976,487.567,518.09,488.787,518.804,490.893z"/>
<path fill="#0A0909" d="M653.743,429.749c1.099,0.241,2.367-0.09,3.225,0.959c-1.581,0.429-3.163,0.857-4.744,1.286
	c-2.987-0.337-0.463-1.282-0.219-1.976C652.502,429.396,653.088,429.35,653.743,429.749z"/>
<path fill="#112B37" d="M551.191,443.874c0.289-0.686,0.577-1.372,0.866-2.057c1.68,1.13,2.175,2.983,2.876,4.71
	C552.981,446.637,551.959,445.434,551.191,443.874z"/>
<path fill="#061217" d="M528.2,474.647c-0.03,0.459-0.061,0.917-0.091,1.376c0,0.609,0,1.219-0.001,1.828
	c-0.316,0.877-0.886,1.28-1.832,0.979c-0.392-0.959-0.785-1.918-1.177-2.877C526.264,475.828,525.846,471.947,528.2,474.647z"/>
<path fill="#10313D" d="M576.005,483.898c0.401,0.029,0.802,0.058,1.204,0.086c-0.172,2.78-1.608,4.064-4.413,3.725
	C573.874,486.446,574.301,484.634,576.005,483.898z"/>
<path fill="#001426" d="M534.029,495.762c2.981-1.137,5.962-1.221,8.94,0.011C539.989,495.769,537.009,495.766,534.029,495.762z"/>
<path fill="#0D2937" d="M591.064,449.112c-0.086-1.747-0.172-3.495-0.258-5.242c-0.586-1.316-0.984-2.567,1.024-2.997
	c0.077,1.672,0.154,3.344,0.23,5.016c-0.33,1.071-0.356,2,1.052,2.264c0.292,0.411,0.196,0.725-0.237,0.956
	C592.271,449.11,591.668,449.111,591.064,449.112z"/>
<path d="M510.023,403.699c0.019-0.693,0.038-1.386,0.056-2.08c1.505,0.853,2.929,1.804,3.922,3.271
	c-0.364,0.349-0.727,0.698-1.091,1.047C511.136,406.238,510.319,405.304,510.023,403.699z"/>
<path fill="#0C3F54" d="M501.001,407.51c-0.2-0.295-0.176-0.57,0.073-0.826c0.517,0.03,1.034,0.06,1.551,0.091
	c0.764,0.7,1.528,1.4,2.292,2.101c0.393,0.543,0.311,1.002-0.246,1.378C502.657,410.396,500.62,410.57,501.001,407.51z"/>
<path fill="#1B1B1B" d="M485.987,428.915c0.46-0.418,0.92-0.836,1.379-1.255c1.875,0.308,2.906,1.431,3.175,3.289
	C488.858,430.641,487.166,430.352,485.987,428.915z"/>
<path fill="#001D38" d="M486.174,424.923c-0.054-0.345-0.107-0.689-0.16-1.033c1.915-0.047,3.83-0.093,5.745-0.14
	c0.747,0.047,1.494,0.094,2.24,0.142c0.219,0.213,0.29,0.424,0.214,0.634c-0.076,0.209-0.151,0.313-0.225,0.313
	C491.383,424.867,488.779,424.895,486.174,424.923z"/>
<path fill="#264451" d="M514.955,489.098c-0.044,0.738-0.088,1.475-0.132,2.213c-1.381-0.484-2.799-0.914-3.504-2.39
	c0.661-1.146,2.334,0.54,2.848-1.018c0.408-0.262,0.786-0.224,1.135,0.114C515.483,488.474,515.368,488.834,514.955,489.098z"/>
<path fill="#19262E" d="M505.227,397.783c-0.41,0.365-0.819,0.729-1.229,1.094c-1.903,0.615-2.543-0.595-2.997-2.074
	c0.318-0.566,0.637-1.132,0.955-1.698C503.401,395.564,504.424,396.539,505.227,397.783z"/>
<path fill="#000408" d="M655.88,473.533c0.037,0.716,0.074,1.433,0.111,2.149c-0.395,1.703-1.215,2.79-3.191,2.204
	c-0.406-0.723-0.428-1.418,0.156-2.068C653.596,474.627,654.435,473.691,655.88,473.533z"/>
<path fill="#2A586A" d="M548.05,466.856c0.35,0.058,0.7,0.117,1.049,0.175c-0.477,2.204-1.391,3.899-4.092,3.514
	C546.021,469.314,547.035,468.085,548.05,466.856z"/>
<path fill="#1B2835" d="M652.957,475.817c0.046,0.633,0.091,1.266,0.137,1.899c-0.312,0.481-0.742,0.805-1.29,0.976
	c-1.154,0.228-2.206,0.107-3.001-0.885c0.43-0.643,0.861-1.287,1.291-1.93c0.596-0.329,1.192-0.657,1.789-0.986
	C652.241,475.2,652.599,475.509,652.957,475.817z"/>
<path fill="#037C9F" d="M538.945,478.91c-1.111-0.813-2.926-0.878-2.985-2.809c1.007-0.08,2.014-0.16,3.022-0.241
	c0.615,0.093,1.041,0.446,1.346,0.97c0.11,0.38,0.099,0.76-0.009,1.139C540.006,478.494,539.577,478.85,538.945,478.91z"/>
<path fill="#000509" d="M596.116,456.684c-0.327,0.727-0.653,1.454-0.98,2.181c-1.027-1.057-1.286-2.368-1.247-3.777
	c-0.23-0.434-0.363-0.953,0.158-1.175c0.929-0.395,1.435,0.209,1.793,0.981C595.932,455.491,596.024,456.088,596.116,456.684z"/>
<path fill="#0B181F" d="M595.84,454.894c-0.685-0.288-1.412-0.989-1.951,0.194c-0.776-0.566-0.891-1.352-0.741-2.227
	c0.78-0.89-0.24-2.314,0.917-3.092C595.202,451.288,595.778,453.002,595.84,454.894z"/>
<path fill="#37606C" d="M539.933,477.086c-0.317-0.409-0.634-0.818-0.95-1.226c0.293-1.85,1.206-2.95,3.249-2.682
	c0.053,0.192,0.103,0.385,0.151,0.578c-0.049,0.87-0.4,1.623-0.888,2.327C541.088,476.594,540.596,476.975,539.933,477.086z"/>
<path fill="#010000" d="M700.045,380.998c-0.026-0.371-0.053-0.742-0.079-1.113c0.026-2.038,0.053-4.075,0.08-6.113
	C701.607,376.181,701.614,378.589,700.045,380.998z"/>
<path fill="#04121B" d="M622.784,465.073c0.7-0.385,1.401-0.77,2.101-1.155c0.424,0.49,0.848,0.979,1.272,1.469
	c-0.098,0.956-0.196,1.913-0.295,2.869C624.836,467.195,623.81,466.134,622.784,465.073z"/>
<path fill="#080F14" d="M494.053,412.88c0.311-0.333,0.622-0.666,0.934-1c2.105-1.112,2.956-0.063,3.276,1.901
	c-1.444,1.073-2.915,0.225-4.376,0.062C494.014,413.535,494.07,413.214,494.053,412.88z"/>
<path fill="#15292D" d="M488.977,437.896c0.313-0.282,0.626-0.564,0.939-0.846c1.659,0.476,3.19,1.171,4.318,2.549
	C492.124,440.138,490.515,439.125,488.977,437.896z"/>
<path fill="#08364B" d="M606.061,435.994c1.104-0.073,2.208-0.146,3.311-0.219c0.805,0.855,1.472,1.777,1.469,3.024
	c-0.246,0.655-0.566,0.693-0.959,0.115c-0.998-1.107-1.953-2.302-3.727-1.814c-0.268-0.225-0.371-0.463-0.31-0.716
	C605.908,436.124,605.98,435.994,606.061,435.994z"/>
<path fill="#000509" d="M594.065,449.769c-0.213,1.058,0.171,2.294-0.918,3.092c-0.433-1.226-0.888-2.451-0.273-3.753
	c0.079-0.318,0.157-0.637,0.236-0.956C594.431,448.101,593.908,449.135,594.065,449.769z"/>
<path fill="#1A2A30" d="M584.046,402.104c-0.036,0.28-0.067,0.56-0.092,0.842c-1.714-0.051-3.427-0.103-5.14-0.155
	C580.464,401.847,582.246,401.903,584.046,402.104z"/>
<path fill="#030303" d="M487.138,433.906c1.049,0.902,0.71,2.128,0.76,3.262C486.53,436.34,485.261,435.489,487.138,433.906z"/>
<path fill="#22282E" d="M488.124,413.774c-1.783,0.002-3.566,0.003-5.35,0.005C484.556,412.284,486.34,412.962,488.124,413.774z"/>
<path fill="#2FBADB" d="M642.021,493.534c0.005-0.43,0.009-0.859,0.014-1.289c1.107-1.708,2.478-1.314,3.903-0.491l0.135,0.279
	c0,0-0.244,0.191-0.245,0.192C644.743,493.198,643.374,493.342,642.021,493.534z"/>
<path fill="#0A0C0D" d="M547.02,494.982c-0.602-0.166-1.203-0.333-2.097-0.58c1.587-0.755,2.852-0.93,4.055,0.255
	C548.326,494.765,547.673,494.874,547.02,494.982z"/>
<path d="M609.882,438.914c0.324-0.002,0.644-0.039,0.959-0.113c0.38,0.706,0.76,1.413,1.141,2.121
	c-0.31,0.296-0.62,0.592-0.93,0.888C610.04,441.095,610.007,439.986,609.882,438.914z"/>
<path fill="#05131C" d="M598.168,405.871c1.419-0.058,1.808-1.028,1.955-2.211c4.504,3.602,6.431,8.758,8.383,13.902
	c-0.502,1.168-1.35,1.977-2.544,2.421C602.467,415.774,599.849,411.081,598.168,405.871z"/>
<path fill="#041017" d="M606.061,435.994c0.031,0.369,0.063,0.737,0.094,1.106c-1.06,4.427-3.94,7.222-8.02,8.941
	c-1.345,0.466-2.437,0.49-2.437-1.394c3.404-3.321,6.809-6.641,10.213-9.962C605.961,435.122,606.011,435.558,606.061,435.994z"/>
<path fill="#00060A" d="M591.83,440.873c-1.022,0.767-0.754,1.973-1.022,2.997c-0.203,0.009-0.405,0.012-0.606,0.01
	c-1.203-1.326-0.677-2.803-0.375-4.261c0.01-2.175,0.019-4.351,0.029-6.526c-0.691-2.834-0.239-5.705-0.273-8.561
	c0.164-0.236,0.329-0.471,0.494-0.707C592.584,429.31,592.326,435.079,591.83,440.873z"/>
<path fill="#031119" d="M564.228,429.901c0.845-2.938,1.198-6.089,3.594-8.36c0.823,0.237,1.36,0.902,2.037,1.359
	c-1.396,3.36-1.646,7.14-3.739,10.246C564.763,432.487,565.188,430.79,564.228,429.901z"/>
<path fill="#04121A" d="M569,486.845c-0.27,0.069-0.541,0.135-0.813,0.196c-1.798,1.304-3.878,1.215-5.944,1.213
	c-2.561-0.436-5.46-0.217-6.646-3.368c0.341-1.673,1.427-1.607,2.682-1.146c1.236,0.092,2.472,0.184,3.708,0.276
	c2.009,0.662,4.377,0.135,6.075,1.831C568.375,486.18,568.688,486.513,569,486.845z"/>
<path fill="#020B11" d="M588.645,424.075c-0.906-3.328-1.811-6.657-2.717-9.985c3.919,2.413,4.789,5.809,4.149,9.735
	c0,0-0.086,0.091-0.086,0.091C589.597,424.432,589.148,424.485,588.645,424.075z"/>
<path fill="#0D3346" d="M568.267,419.974c0.884-1.873,1.9-3.618,3.487-5.048c0.617-0.555,0.974-1.353,1.867-0.786
	c0.679,0.431,0.514,1.379,0.082,1.72c-2.031,1.607-1.488,4.662-3.595,6.177C569.144,421.662,568.851,420.688,568.267,419.974z"/>
<path fill="#03131E" d="M544.937,476.887c3.355,0.262,4.525,3.739,7.249,4.93c-0.213,0.748-0.701,1.221-1.44,1.447
	c-3.347-0.548-5.795-2.064-6.197-5.776C544.678,477.287,544.808,477.087,544.937,476.887z"/>
<path fill="#09171E" d="M613.091,423.69c-0.138,1.404-0.785,2.232-2.322,2.05c-0.969-1.261-1.939-2.522-2.909-3.782
	c0.481-0.907,1.302-1.292,2.257-1.476C611.95,420.77,613.183,421.617,613.091,423.69z"/>
<path fill="#06283A" d="M550.979,482.786c0.402-0.323,0.805-0.646,1.207-0.969c2.271-0.119,4.187,0.885,6.093,1.924
	c-0.863,0.231-1.835,0.255-2.319,1.212C553.496,486.08,551.992,484.998,550.979,482.786z"/>
<path fill="#113E50" d="M568.063,485.848c-2.083-0.419-4.257-0.535-6.075-1.831c3.106,1.024,4.36-1.42,5.974-3.191
	c0.587,0.12,0.935,0.476,1.05,1.062C568.586,483.182,566.878,484.168,568.063,485.848z"/>
<path d="M610.055,420.779c-0.446,0.924-1.296,1.096-2.194,1.178c-0.952-0.351-1.615-0.982-1.9-1.975
	c0.085-1.197,0.553-2.043,1.906-2.076C609.417,418.239,610.339,419.049,610.055,420.779z"/>
<path fill="#020A11" d="M564.228,429.901c2.081,0.236,1.668,1.926,1.892,3.244c-0.109,0.59-0.219,1.181-0.328,1.771
	c-3.72,0.745-0.952-2.294-1.86-3.189C564.03,431.118,564.129,430.509,564.228,429.901z"/>
<path fill="#081E2D" d="M541.147,475.881c-0.292-1.115,0.264-1.739,1.233-2.125c1.754,0.31,2.71,1.269,2.558,3.132
	c0-0.001,0.11-0.045,0.11-0.045C543.362,478.083,542.18,477.285,541.147,475.881z"/>
<path fill="#0D2F41" d="M588.645,424.075c0.448-0.053,0.897-0.107,1.346-0.16c-0.045,3.059-0.089,6.118-0.134,9.177
	C588.553,430.208,589.038,427.082,588.645,424.075z"/>
<path fill="#133544" d="M549.877,436.912c-0.301-0.339-0.602-0.677-0.904-1.015c0.277-2.339-0.829-4.855,0.895-7.009
	C549.871,431.562,549.874,434.237,549.877,436.912z"/>
<path fill="#060B0D" d="M587.91,455.642c-0.51,2.101,1.637,4.934-1.721,6.251C586.417,459.714,586.909,457.608,587.91,455.642z"/>
<path fill="#0D2937" d="M589.827,439.618c0.124,1.42,0.248,2.841,0.373,4.261c-0.474,1.307,0.46,3.174-1.537,3.878
	C589.053,445.045,588.713,442.228,589.827,439.618z"/>
<path fill="#03090D" d="M568.267,419.974c1.445-0.054,1.707,0.948,1.842,2.064c0.017,0.316-0.067,0.604-0.25,0.862
	c-1.573,0.888-1.921-0.062-2.037-1.359C567.97,421.018,568.118,420.496,568.267,419.974z"/>
<path fill="#13566E" d="M568.958,478.889c0.467-1.175,0.933-2.351,2.425-3.17c0.878,2.061-0.078,3.211-1.25,4.299
	C569.46,479.935,569.318,479.299,568.958,478.889z"/>
<path fill="#060B0D" d="M585.922,463.689c-0.134,1.583,0.878,3.635-1.725,4.205C584.29,466.295,584.927,464.919,585.922,463.689z"/>
<path fill="#015476" d="M595.698,444.647c0.394,1.196,1.454,1.228,2.437,1.394c-1.474,1.255-2.916,1.601-4.282-0.153
	C594.468,445.474,595.083,445.06,595.698,444.647z"/>
<path fill="#0D2B3A" d="M568.958,478.889c0.392,0.376,0.783,0.753,1.175,1.129c-0.374,0.623-0.748,1.246-1.121,1.869
	c-0.35-0.354-0.7-0.708-1.05-1.062C568.294,480.18,568.626,479.535,568.958,478.889z"/>
<path fill="#050D12" d="M636.044,479.884c1.384-0.026,2.768-0.052,4.153-0.079c1.944,0.669,3.377,2.733,5.791,2.122
	c0.208,0.103,0.416,0.207,0.627,0.306c1.381,1.316,2.875,2.49,4.407,3.63c0.81,0.602,2.033,1.396,0.481,2.565
	c-0.99,0.352-1.878-0.108-2.794-0.349C643.516,486.849,639.272,484.151,636.044,479.884z"/>
<path fill="#032134" d="M647.994,490.015c-0.651,0.326-1.302,0.652-1.954,0.978c-2.591,0.975-5.356-0.144-7.962,0.662
	c-1.989-0.345-3.977-0.69-5.966-1.035c0.082-1.844,1.202-1.079,2.112-0.841C638.814,489.858,643.404,489.936,647.994,490.015z"/>
<path fill="#00334B" d="M634.225,489.779c-0.704,0.28-1.408,0.56-2.112,0.841c-1.962-0.447-4.252-0.282-5.127-2.754
	C629.726,487.264,631.847,489.008,634.225,489.779z"/>
<path fill="#073140" d="M648.709,488.08c1.02-0.08,2.04-0.16,3.06-0.239c0.719,0.238,1.637-0.68,2.215,0.381
	c0.001,0.528,0.002,1.057,0.003,1.584c-1.424-0.029-2.848-0.056-4.271-0.083C649.38,489.175,649.045,488.628,648.709,488.08z"/>
<path fill="#06BBE9" d="M498.263,413.781c-0.739-1.241-1.917-1.727-3.276-1.901c-0.525-1.463-2.26-2.229-2.291-3.976
	c-0.692-1.417-0.388-2.237,1.326-2.215c2.42,0.248,4.302,2.556,6.979,1.822c0.808,1.723,2.316,2.197,4.049,2.268
	c0.401-0.244,0.833-0.328,1.297-0.257c1.726,0.569,3.276,1.482,4.787,2.469c0.729,0.478,1.477,0.93,2.236,1.365
	c0.836,0.641,2.024,1.047,1.709,2.48c-1.369,0.126-2.969-0.104-3.07,1.984c-0.626,0.573-1.259,0.574-1.899,0.024
	C506.756,414.757,501.479,417.275,498.263,413.781z"/>
<path fill="#09B9E6" d="M510.023,403.699c0.962,0.746,1.925,1.492,2.887,2.238c2.771,2.607,5.543,5.213,8.314,7.82
	c-0.817,0.675-1.635,1.349-2.453,2.024c-1.46-0.968-3.227-1.268-4.722-2.159c-0.693-0.504-1.507-0.786-2.249-1.2
	c-1.22-1.151-2.773-1.823-4.108-2.811c-0.688-0.489-1.191-1.144-1.645-1.843c-0.536-2.544-2.163-4.394-3.92-6.162
	c-0.129-0.532-0.257-1.065-0.386-1.597c0.779-0.818,1.64-0.692,2.53-0.218C506.189,401.093,508.106,402.396,510.023,403.699z"/>
<path fill="#06202E" d="M499.984,424.96c2.57,0.353,5.139,0.705,7.709,1.058c0.415,0.062,0.626,0.303,0.634,0.723
	c-0.276,0.54-0.839,0.71-1.305,1.005c-2.533,0.192-5.007,0.123-7.092-1.632C499.392,425.704,499.41,425.319,499.984,424.96z"/>
<path fill="#01131D" d="M499.984,424.96c-0.018,0.384-0.036,0.769-0.054,1.153c-2.04-0.147-4.067-0.355-5.942-1.275
	c0.014-0.316,0.018-0.631,0.011-0.947c-0.004-0.591-0.007-1.182-0.011-1.774C495.986,423.065,497.985,424.013,499.984,424.96z"/>
<path fill="#010508" d="M510.111,417.844c0.633-0.008,1.266-0.016,1.899-0.024c1.078,0.72,2.111,1.474,2.53,3.231
	c-2.042-0.473-3.797-0.879-5.552-1.285C508.255,418.478,508.629,417.837,510.111,417.844z"/>
<path fill="#052B3E" d="M514.084,412.776c1.698,0.79,3.869,0.843,4.688,3.004c-1.23,0.018-2.461,0.037-3.692,0.055
	c-0.731-0.626-1.462-1.253-2.193-1.879C513.035,413.308,513.434,412.915,514.084,412.776z"/>
<path fill="#00223B" d="M507.022,427.746c0.397-0.312,0.794-0.625,1.191-0.937c2.541-0.512,5.077-0.912,7.556,0.276
	C512.969,428.844,509.974,428.008,507.022,427.746z"/>
<path fill="#47B2CD" d="M515.768,427.085c-2.519-0.092-5.038-0.184-7.556-0.276c-0.197-0.247-0.369-0.511-0.518-0.79
	C510.391,426.328,513.351,424.653,515.768,427.085z"/>
<path fill="#080F14" d="M493.647,416.014c2.345-0.314,4.549-0.103,6.323,1.704C497.71,417.715,495.609,417.123,493.647,416.014z"/>
<path fill="#133544" d="M548.24,435.927c-0.202,0.835-0.168,1.856-1.45,1.84c0.667-1.931,0.135-3.865,0.013-5.799
	C548.729,432.762,547.737,434.616,548.24,435.927z"/>
<path fill="#06181F" d="M503.772,433.734c-0.589-0.56-1.177-1.121-1.766-1.681c1.443-0.196,2.857-0.222,4.121,0.677
	C505.604,433.679,504.753,433.859,503.772,433.734z"/>
<path fill="#00CBFE" d="M610.055,420.779c-0.729-0.957-1.458-1.915-2.188-2.872c-2.582-4.749-5.163-9.498-7.745-14.246
	c-3.54-9.593-1.86-18.789,1.638-28.054c2.834-7.507,9.093-12.066,14.141-17.623c6.03-6.637,14.342-10.095,22.091-14.267
	c2-0.707,4-1.414,6-2.121c2.978-0.912,5.957-1.823,8.935-2.735c1.727-0.677,3.444-0.78,5.146,0.082
	c0.553,1.597-1.077,1.966-1.65,2.928c-0.855,0.751-1.955,1.082-2.907,1.665c-1.507,1.136-3.359,1.811-4.546,3.383
	c-0.769,0.752-1.53,1.512-2.505,2.006c-0.426,0.45-1.205,0.593-1.207,1.406c0.36-0.272,0.695-0.574,1.03-0.892
	c0.963-0.83,1.903-1.667,2.76-2.595c1.248-1.475,3.095-2.098,4.587-3.225c0.71-0.421,1.469-0.748,2.198-1.134
	c1.275-1.022,2.433-2.248,4.198-2.417c7.009-3.721,13.309-0.323,19.72,1.965c8.807,6.099,14.583,14.311,17.395,24.661
	c1.178,4.335,1.13,8.802,1.749,13.194c-1.015,4.212-2.029,8.424-3.043,12.636c-1.009,1.226-2.306,1.613-3.837,1.318
	c-2.13-0.774-4.604-0.583-6.411-2.273c-2.517-1.3-3.55-5.498-7.559-3.841c-1.544,1.488-2.724,3.262-3.965,4.989
	c-0.298,0.326-0.654,0.569-1.061,0.737c-7.176,3.209-8.67,6.924-6.143,14.47c1.255,0.722,1.807,1.945,2.302,3.208
	c0.706,2.184,2.312,3.44,4.37,4.233c0.145,0.159,0.286,0.321,0.428,0.484c1.695,1.836,1.164,2.951-0.816,4.387
	c-5.944,4.31-12.898,6.449-19.418,9.514c-0.579,0.09-1.158,0.179-1.737,0.269c-1.301,0.198-2.625,0.302-3.9,0.607
	c-12.74,3.053-24.492,1.175-35.015-6.935C612.265,422.526,611.483,421.316,610.055,420.779z"/>
<path fill="#FCCB15" d="M673.02,393.453l-0.008,0.002c1.697-1.849,3.117-3.918,4.668-5.885c1.348-1.384,2.501-1.029,3.809,0.197
	c1.439,1.348,2.931,2.66,4.551,3.799c0.968,1.545,3.348,1.337,4.032,3.24c4.287,3.822,10.071,2.927,14.991,4.754
	c2.956-0.332,5.922-0.106,8.883-0.135c0.918-0.009,2.095-0.187,1.967,1.382c-13.382,7.873-27.137,6.665-40.992,1.566
	c-3.925-1.445-6.959-3.447-2.002-7.469C673.178,394.697,672.997,393.95,673.02,393.453z"/>
<path fill="#FAC917" d="M684.197,415.126c-0.081,0.239-0.197,0.461-0.347,0.664c-3.291,0.02-6.582,0.039-9.873,0.059
	c0,0,0.066,0.073,0.066,0.073c-1.804-1.03-3.872-1.749-4.683-3.957c-0.529-1.769-1.079-3.535-1.164-5.401
	c-0.369-1.993,0.192-3.851,2.379-2.387c4.476,2.996,9.675,3.268,14.55,4.739c5.489,1.134,11.056,0.085,16.569,0.596
	c0.966,0.628,0.855,1.425,0.357,2.281c-0.931,1.087-3.072,0.996-2.991,3.07c-1.285,0.607-2.023-0.474-2.955-0.957
	C692.247,415.402,688.006,413.156,684.197,415.126z"/>
<path fill="#DBC46B" d="M702.011,409.856c-5.62-0.486-11.358,1.138-16.888-0.94c5.608,0.012,11.215,0.023,16.821,0.035
	c0.277,0.182,0.379,0.377,0.307,0.585C702.177,409.749,702.097,409.856,702.011,409.856z"/>
<path fill="#767672" d="M715.915,400.808c-3.43-2.052-7.288-0.369-10.852-1.246c3.65-1.592,7.488-0.478,11.183-0.446
	C718.566,399.135,716.887,400.331,715.915,400.808z"/>
<path fill="#1C1F18" d="M690.073,394.807c-1.202-1.186-3.908,0.015-4.186-2.638c-0.353-0.552-0.285-1.046,0.203-1.483
	c1.998,1.01,4.331,1.39,5.927,3.155C691.368,394.163,690.72,394.485,690.073,394.807z"/>
<path fill="#DCBB45" d="M702.011,409.856c-0.003-0.303-0.024-0.605-0.066-0.906c1.347-0.285,2.59-1.512,4.443-0.319
	c-0.889,1.923-2.695,2.446-4.339,3.162C702.037,411.147,702.024,410.501,702.011,409.856z"/>
<path fill="#1A1811" d="M668.195,406.564c0.71,1.757,1.42,3.515,2.131,5.272c-0.679,0.648-1.369,0.613-2.068,0.035
	c-0.46-1.315-0.92-2.631-1.38-3.947C667.316,407.47,667.755,407.017,668.195,406.564z"/>
<path fill="#082C3B" d="M524.959,492.958c-0.64-0.322-1.281-0.644-1.921-0.966c-0.686-0.831-1.24-1.774-2.099-2.459
	c-0.491-0.45-0.857-0.973-0.945-1.653c0.433-1.888-1.638-2.699-1.852-4.309c-0.055-0.676,0.076-1.116,0.883-0.693
	c3.43,2.934,6.86,5.868,10.29,8.801C528.112,492.956,526.63,493.277,524.959,492.958z"/>
<path fill="#072839" d="M519.024,482.879c-0.295,0.231-0.589,0.463-0.884,0.693c-2.553-0.582-2.739-3.033-3.79-4.801
	c1.211-0.68,1.655-1.797,1.762-3.104C517.606,477.86,518.442,480.318,519.024,482.879z"/>
<path fill="#020304" d="M529.765,480.923c1.364,1.399,3.466,2.054,4.16,4.128c0.465,0.983-0.091,1.444-0.906,1.772
	c-2.311-1.313-3.857-3.166-4.169-5.893C529.152,480.616,529.457,480.613,529.765,480.923z"/>
<path fill="#082738" d="M536.052,486.795c1.479,1.6,3.983,1.963,4.992,4.131c-2.78,0.521-4.56-1.034-6.158-2.966
	C535.027,487.325,535.41,486.93,536.052,486.795z"/>
<path fill="#051624" d="M529.765,480.923l-0.457,0.026c0,0-0.458-0.019-0.458-0.019c-0.928-0.614-2.308-0.675-2.573-2.101
	c0.611-0.326,1.221-0.653,1.832-0.979C529.377,478.489,530.067,479.439,529.765,480.923z"/>
<path fill="#050C10" d="M536.052,486.795c-0.389,0.388-0.777,0.777-1.166,1.165c-0.794-0.097-1.615-0.15-1.867-1.137
	c0.302-0.591,0.604-1.182,0.906-1.772C534.634,485.633,535.343,486.214,536.052,486.795z"/>
<path fill="#001529" d="M545.009,492.007c-0.462,0.897-1.382,0.67-2.131,0.866c-0.953-0.38-1.609-1.042-1.932-2.022
	C542.301,491.237,543.655,491.622,545.009,492.007z"/>
<path fill="#0B1F28" d="M538.945,478.91c0.386-0.421,0.772-0.842,1.157-1.263c4.571,0.4,3.38,3.822,3.454,6.582
	c-0.165,0.214-0.333,0.427-0.501,0.641C539.284,484.54,540.856,480.524,538.945,478.91z"/>
<path fill="#001D33" d="M548.065,489.603c-0.035,0.421-0.071,0.841-0.106,1.261c-2.235-1.507-5.931-1.819-4.902-5.995
	c0,0-0.104,0.052-0.104,0.052C546.228,484.766,547.532,486.763,548.065,489.603z"/>
<path fill="#36A1BC" d="M551.039,492.866c-1.694-0.115-3.55,0.682-4.984-0.888c0.593-0.294,1.184-0.589,1.776-0.884
	C548.984,491.534,550.266,491.739,551.039,492.866z"/>
<path fill="#147B99" d="M657.876,339.769c-1.339-1.989-3.406-0.019-4.948-0.909c2.412-1.022,4.826-2.122,7.141,0.208
	C659.408,339.519,658.954,340.62,657.876,339.769z"/>
<path fill="#00293C" d="M657.876,339.769c0.731-0.234,1.462-0.468,2.193-0.701c-0.012,0.334-0.025,0.667-0.037,1
	c-0.735,1.78-2.517,2.06-3.991,2.782c-0.615-0.421-0.687-0.921-0.217-1.498C655.743,339.831,656.837,339.835,657.876,339.769z"/>
<path fill="#0C161D" d="M648.803,477.808c1.2,0.079,2.4,0.157,3.6,0.236c0.323,2.991-1.861,3.582-4.019,4.202
	c-0.793-0.163-1.288-0.638-1.481-1.426C646.808,479.357,647.607,478.457,648.803,477.808z"/>
<path fill="#37383A" d="M646.904,480.82c0.386,0.339,0.772,0.678,1.158,1.017c-0.696,0.585-1.4,0.651-2.113,0.03
	c0,0,0.04,0.061,0.04,0.06C646.293,481.558,646.598,481.189,646.904,480.82z"/>
<path fill="#05C7F7" d="M548.065,489.603c-1.522-1.759-2.642-3.958-5.112-4.681c-0.646-2.544-0.071-5.566-2.849-7.275
	c0.039-0.216-0.017-0.404-0.17-0.562c0.403-0.401,0.807-0.803,1.212-1.204c1.344,0.147,2.299,1.867,3.902,0.962
	c0.203,3.753,3.304,4.612,5.932,5.943c1.66,0.722,3.321,1.444,4.981,2.167c1.717,1.299,3.781,1.632,5.804,2.079
	c1.975,0.946,4.227-0.241,6.19,0.801c-0.286,0.623-0.573,1.246-0.857,1.868c-1.075,0.352-2.151,0.704-3.227,1.056
	c-3.27,1.071-6.551,0.887-9.839,0.096C551.859,491.313,550.142,489.596,548.065,489.603z"/>
<path fill="#001D33" d="M554.031,490.853c3.28-0.032,6.561-0.064,9.84-0.096C560.608,492.571,557.326,492.401,554.031,490.853z"/>
<path fill="#08151C" d="M519.993,487.88c0.332,0.334,0.664,0.668,0.996,1.001c0.05,0.854-0.246,1.538-0.988,2.001
	c-0.398,0.004-0.795,0.007-1.195,0.01c-1.179-0.825-1.996-2.421-3.851-1.798c-0.005-0.364-0.01-0.731-0.015-1.098
	c-0.555-1.11,0.099-1.562,1.018-1.87C517.505,486.248,518.149,488.445,519.993,487.88z"/>
<path fill="#00060C" d="M509.009,482.836c-0.386-0.303-0.772-0.605-1.157-0.908c-1.167-0.667-2.443-1.264-1.95-3.008
	c0.363-0.349,0.727-0.698,1.09-1.047c1.455,1,2.788,2.097,3.125,3.976C509.963,482.42,509.599,482.755,509.009,482.836z"/>
<path fill="#050C10" d="M515.958,486.127c-0.339,0.623-0.678,1.245-1.017,1.869c-0.26-0.021-0.518-0.053-0.775-0.094
	c-0.732-0.986-1.465-1.974-2.197-2.961c-0.238-0.983,0.093-1.391,1.114-1.101C514.041,484.603,515,485.365,515.958,486.127z"/>
<path fill="#031C2D" d="M513.082,483.84c-0.371,0.367-0.742,0.734-1.114,1.101c-0.938-0.771-2.401-0.802-2.96-2.106
	c0.369-0.329,0.739-0.658,1.108-0.987C511.701,481.626,512.381,482.749,513.082,483.84z"/>
<path fill="#1DACCF" d="M505.902,478.92c0.357,1.192,2.244,1.393,1.95,3.008c-0.3,0.691-0.601,1.383-0.901,2.074
	c-1.12-0.621-1.364-1.944-2.336-2.806C503.337,480.062,504.023,478.892,505.902,478.92z"/>
<path fill="#1CAFD5" d="M504.273,399.791c-0.844,0.072-1.687,0.144-2.531,0.217c-1.271-0.83-2.858-1.588-0.742-3.204
	c0.999,0.691,1.998,1.382,2.997,2.074C504.065,399.189,504.156,399.494,504.273,399.791z"/>
<path fill="#03121C" d="M638.078,491.654c2.551-1.459,5.308-0.43,7.961-0.663c-0.025,0.256-0.058,0.51-0.101,0.763
	c-1.302,0.164-2.603,0.327-3.904,0.491C640.716,492.048,639.397,491.851,638.078,491.654z"/>
<path fill="#06C2F2" d="M645.948,481.867c0.704-0.01,1.408-0.02,2.113-0.03c1.572-1.123,3.593-1.73,4.342-3.794
	c0.315,0.071,0.544-0.038,0.69-0.327c0.967-0.678,1.933-1.357,2.899-2.035c2.726-1.269,4.317-0.933,3.895,2.604
	c-0.172,1.443-0.064,2.92-0.083,4.383c-1.727,2.074-3.083,4.535-5.818,5.553c-0.758-0.018-1.691,0.991-2.216-0.381
	C650.152,485.535,646.278,485.428,645.948,481.867z"/>
<path fill="#EDCA42" d="M684.197,415.126c3.742-2.618,7.953-0.66,11.907-1.22C692.286,415.787,688.159,414.648,684.197,415.126z"/>
<path fill="#06364B" d="M520.001,490.883c0.083-0.789,0.194-1.564,0.988-2.001c2.083,0.113,2.978,1.01,2.049,3.11
	C521.586,492.825,520.823,491.773,520.001,490.883z"/>
<path fill="#040708" d="M506.048,407.767c0.746,0.279,1.493,0.559,2.24,0.838c-0.001,1.826-0.939,2-2.352,1.334
	c-0.302-0.015-0.597-0.069-0.885-0.16c-0.099-0.293-0.144-0.594-0.133-0.903C505.294,408.506,505.671,408.136,506.048,407.767z"/>
<path fill="#113E50" d="M567.954,487.833c-2.055-0.324-4.279,0.651-6.189-0.801c2.14,0.003,4.281,0.006,6.422,0.01
	C568.113,487.306,568.035,487.57,567.954,487.833z"/>
<path fill="#063547" d="M505.935,409.939c0.961-0.134,1.908-0.291,2.352-1.334c1.347,0.989,3.065,1.527,3.862,3.183
	c-0.136,0.605-0.517,0.944-1.124,1.041C509.329,411.865,507.632,410.902,505.935,409.939z"/>
<path fill="#09191E" d="M511.026,412.829c0.374-0.347,0.749-0.694,1.124-1.041c0.645,0.329,1.289,0.659,1.934,0.988
	c-0.398,0.394-0.797,0.787-1.196,1.181C512.267,413.581,511.647,413.205,511.026,412.829z"/>
<path fill="#01080C" d="M659.272,386.043c-0.354,2.184-0.825,5.294-1.375,8.39c-0.23,1.296-1.23,2.147-2.432,2.092
	c-1.562-0.071-1.495-1.503-1.474-2.654c0.071-3.781-0.56-7.661,1.635-11.147c0.659-1.046,0.637-2.971,2.457-2.513
	c1.682,0.423,0.956,2.188,1.174,3.392C659.345,384.085,659.272,384.596,659.272,386.043z"/>
<path fill="#030D13" d="M684.038,374.307c-0.459,1.511-0.686,2.833-1.253,3.986c-0.771,1.568-1.447,3.881-3.725,3.21
	c-2-0.589-1.039-2.812-1.205-4.34c-0.106-0.976-0.033-1.989,0.091-2.969c0.312-2.471,1.104-6.043,3.241-5.921
	C683.948,368.43,682.699,372.384,684.038,374.307z"/>
<path fill="#1A1C12" d="M686.09,390.686c-0.068,0.494-0.135,0.989-0.203,1.483c-2.03-0.171-2.926-1.886-4.065-3.156
	c-1.128-1.258-2.121-1.995-3.642-0.723c-0.685-0.203-0.797-0.849-1.063-1.376c1.522-2.553,3.582-1.926,5.042-0.32
	C683.433,387.996,685.522,388.637,686.09,390.686z"/>
<path fill="#002233" d="M639.26,360.078c-2.271,2.293-2.138,6.347-6.532,8.507c1.764-4.077,2.664-7.365,5.088-9.953
	C638.604,358.808,639.029,359.346,639.26,360.078z"/>
<path fill="#030508" d="M639.26,360.078c-0.482-0.482-0.963-0.964-1.445-1.446c1.019-2.144,1.375-4.988,5.342-4.769
	C641.703,356.183,640.482,358.131,639.26,360.078z"/>
<path fill="#031B2C" d="M647.039,349.909c-0.351,0.537-0.622,1.155-1.07,1.593c-0.852,0.834-1.64,2.311-3.099,0.811
	c-1.379-1.417,0.415-1.917,0.942-2.644c0.513-0.709,1.459-1.104,2.215-1.636C646.711,348.471,647.018,349.113,647.039,349.909z"/>
<path fill="#1D1A0F" d="M677.117,386.913c0.354,0.459,0.708,0.917,1.062,1.376c-1.676,1.768-2.244,4.644-5.167,5.166
	C673.087,390.463,675.642,389.027,677.117,386.913z"/>
<path fill="#1A261F" d="M668.257,411.871c0.689-0.012,1.378-0.024,2.068-0.035c0.689,1.863,3.292,1.984,3.718,4.086
	C670.531,416.832,669.346,414.42,668.257,411.871z"/>
<path fill="#104058" d="M649.03,346.944c0.094-2.586,2.245-3.071,4.023-3.938c0.424,0.258,1.005,0.344,1.085,0.982
	c-1.298,1.732-2.885,2.944-5.18,2.885L649.03,346.944z"/>
<path fill="#000608" d="M647.039,349.909c-0.77-0.392-0.994-1.079-1.012-1.877c0.936-0.542,1.743-1.438,3.002-1.088
	c0,0-0.071-0.071-0.071-0.071C648.964,348.293,648.33,349.309,647.039,349.909z"/>
<path fill="#0D2937" d="M654.138,343.988c-0.362-0.327-0.724-0.655-1.085-0.982c0.924-0.551,1.848-1.103,2.771-1.655
	c0.072,0.499,0.144,0.999,0.216,1.498C655.407,343.229,654.773,343.609,654.138,343.988z"/>
</svg>
