<?xml version="1.0" encoding="utf-8"?>
<!-- Generator: Adobe Illustrator 18.1.1, SVG Export Plug-In . SVG Version: 6.00 Build 0)  -->
<svg version="1.1" id="Capa_1" xmlns="http://www.w3.org/2000/svg" xmlns:xlink="http://www.w3.org/1999/xlink" x="0px" y="0px"
	 viewBox="0 0 1190.55 841.89" enable-background="new 0 0 1190.55 841.89" xml:space="preserve">
<path fill="#00CBFE" d="M550.056,318.854c0.234-0.018,0.395,0.082,0.482,0.301c2.504,0.188,0.84-2.185,1.808-2.947
	c1.733-3.864,2.071-8.565,6.513-10.79c2.014,0.232,2.109,1.772,2.108,3.257c-0.002,4.883,0.704,9.667,1.846,14.407
	c-2.546,11.084-4.195,22.203-1.559,33.521c0.506,1.54-0.075,3.195,0.499,4.727c0.981,1.75,0.451,3.842,1.077,5.674
	c-0.565-2.117-0.217-4.439-1.261-6.45c-0.146-1.572,0.141-3.183-0.451-4.712c-2.597-12.646-0.477-24.913,2.954-37.073
	c0.803-1.052,0.846-2.39,1.314-3.569c0.501-1.419,1.643-2.471,2.217-3.852c0.815-1.314,1.654-2.6,3.286-3.032
	c2.271,0.285,3.081,1.787,3.061,3.843c-0.042,4.325,0.177,8.64-0.317,12.974c-1.323,11.616-0.36,23.148,0.924,34.752
	c2.063,18.631,8.043,36.173,13.7,53.83c1.228,3.833,1.83,7.69,2.204,12.628c0.121-2.258-0.755-3.702,0.222-4.822
	c1.363-1.561,3.068-0.565,4.632-0.322c3.845,0.598,6.875,2.378,8.58,6.043c0.208,0.447,0.489,0.894,0.834,1.241
	c6.695,6.719,6.04,13.814,1.118,21.136c-11.924,15.191-27.776,17.771-42.676,14.094c-6.561-1.619-11.868-5.939-15.146-12.165
	c-3.078-5.846-3.177-11.32,1.711-16.514c2.921-3.104,6.235-5.441,10.012-7.252c0.427-0.205,0.415-0.228-0.497-1.238
	c-2.906-2.783-5.734-5.63-8.519-8.521c-1.553-2.096-2.863-4.371-4.657-6.294c-11.371-17.342-19.714-35.996-24.495-56.211
	c-1.3-5.498-1.707-11.104-2.253-16.695c-0.096-0.987-0.146-2.045,0.21-2.965c0.728-1.884,0.505-5.233,3.178-4.868
	c3.023,0.413,2.04,3.49,1.97,5.791c-0.242,7.951,0.548,15.821,2.791,23.465c0.742,2.529,1.269,5.122,2.178,7.595
	c0.396,0.986,0.567,2.045,0.896,2.99c0.079-0.259-0.097-0.412-0.104-0.625c-0.308-1.359-0.847-2.605-1.327-3.876
	c-2.195-8.322-4.451-16.615-4.385-25.339c0.042-5.515,0.48-10.944,2.285-16.189c0.43-1.25,0.893-2.717,2.403-2.908
	c1.822-0.231,2.538,1.333,3.199,2.663c1.039,2.089,1.423,4.437,2.479,6.528c0.587,1.48,1.463,2.846,1.781,4.434
	c0.406,3.49-0.348,7.037,0.53,10.5c0.635,5.495,0.855,11.044,2.021,16.397c0.29,0.517-0.474,0.48,0.142,0.226
	c0.616-0.254,0.074,0.314-0.1-0.33s0.546-0.484-0.134-0.524c-1.867-12.884-3.66-25.728-0.784-38.667
	c0.876-3.674,1.924-7.301,3.169-10.861c0.523-1.497,1.02-3.464,3.047-3.387c2.007,0.076,2.396,2.108,2.87,3.596
	C548.335,314.651,548.962,316.835,550.056,318.854z"/>
<path fill="#000101" d="M604.878,449.605c0.565-1.194,1.139-2.385,1.694-3.584c2.238-4.838,3.145-9.003-0.949-14.027
	c-6.712-8.237-6.24-8.622-14.228-10.626c-0.688,2.034,0.288,4.302-1.091,6.713c-2.277-15.371-8.589-29.199-12.271-43.78
	c-5.371-21.27-7.297-42.83-5.174-64.713c0.224-2.31,0.213-4.662,0.086-6.982c-0.097-1.763-0.119-3.848-2.854-3.682
	c-0.545,0.417-1.035,0.361-1.471-0.169c0.571-1.65,1.742-2.454,3.454-2.141c2.059,0.376,2.38,2.228,2.597,3.802
	c0.708,5.14,0.283,10.294-0.154,15.437c-2.119,24.938,2.506,48.957,9.9,72.596c1.335,4.269,2.872,8.48,4.058,12.788
	c1.37,4.976,2.386,10.1,9.597,8.7c0.402-1.252-0.652-2.708-1.132-4.254c-4.031-12.971-1.865-24.954,5.877-35.954
	c1.542-2.191,1.875-4.233,1.853-6.898c-0.129-15.638-4.179-30.54-7.956-45.512c-0.541-2.146-1.773-4.381,0.284-6.438
	c0.895-0.354,1.361,0.193,1.78,0.841c4.623,16.102,9.529,32.158,8.769,49.986c3.563-2.846,6.207-5.88,9.521-8.114
	c6.084-4.101,12.376-7.741,19.305-10.196c2.506-0.888,4.63-1.99,4.269-5.189c-0.337-4.629,0.475-9.202,0.841-13.787
	c0.071,2.048,0.289,4.098-1.638,5.602c-2.479-0.232-1.924-2.349-2.17-3.779c-0.68-3.962-0.201-7.929,0.458-11.854
	c0.458-2.729,0.29-5.225-1.901-7.482c-2.123,1.528-1.485,3.545-1.164,5.397c1.161,6.705,1.827,13.442,1.584,20.254
	c-0.082,2.3-0.155,4.6-2.088,6.747c-2.99-3.738-1.29-7.849-1.854-11.58c-0.014-1.191,0.004-2.381-0.037-3.57
	c0.236-2.393-1.459-3.967-2.482-5.829c-1.187-3.192,0.228-6.931-2.12-10.888c-2.826,6.176-4.591,11.531-2.859,17.506
	c1.561,5.384,1.338,10.883,0.922,16.375c-0.099,1.313-0.516,2.889-2.234,2.792c-1.385-0.078-1.689-1.536-1.826-2.664
	c-1.025-8.407-2.399-16.757-3.925-25.089c0.278-0.817,0.674-1.495,1.689-1.452c0.503,0.749,1.221,1.462,1.638,0.127
	c0.634-2.024,0.843-4.178,1.417-6.225c1.509-5.383,2.855-6.194,7.961-4.2c1.319,0.515,1.589,0.227,2.279-0.581
	c2.669-3.125,4.817-2.031,6.56,0.985c1.116,1.931,1.717,3.94,4.644,4.394c2.171,0.337,2.803,3.099,3.493,5.115
	c2.452,7.167,2.544,14.631,2.273,22.068c-0.107,2.926,0.389,3.978,3.413,2.911c5.637-1.989,11.45-0.867,17.202-0.763
	c1.213-0.518,1.742,0.344,2.303,1.143c21.776,4.669,35.491,37.101,23.524,57.714c5.702,2.016,11.649,1.936,17.489,2.53
	c2.191,0.834,4.617-0.407,6.769,0.768c-0.936,5.19-5.467,7.866-8.957,10.385c-8.362,6.035-17.849,10.074-28.607,9.601
	c-1.546-0.068-2.821,0.254-4.093,1.291c-15.295,12.465-33.22,15.924-52.304,14.637c-5.504-0.371-10.284-3.456-14.9-7.278
	c-1.953,4.007-2.861,8.316-6.029,11.325C605.02,450.894,604.387,450.715,604.878,449.605z"/>
<path fill="#00CBFD" d="M641.837,348.928c0.743,2.557-0.273,3.937-2.761,4.786c-12.395,4.233-23.343,10.804-32.825,21.213
	c1.183-17.329-2.927-33.077-7.433-48.763c-0.358-1.247-0.417-2.58-0.615-3.873c2.309-3.072,4.116-1.362,5.895,0.619l-0.105-0.12
	c1.676,1.193,2.458,3.146,3.882,4.554c3.813,9.268,5.606,19.029,7.057,29.452c-0.897-9.835-3.829-18.737-4.845-27.977
	c-0.182-1.653-0.441-3.299-0.53-4.962c-0.128-2.386-0.227-5.013,2.47-5.943c2.579-0.889,3.791,1.36,4.986,3.18l0.245,0.184
	l-0.051,0.302c0.823,1.372,1.352,2.86,1.72,4.409c3.151,8.911,3.2,18.399,5.298,27.562c1.241-6.63,1.13-13.215-0.76-19.696
	c-1.831-6.279,1.59-11.64,2.804-17.383c0.177-0.836,1.126-1.3,1.997-0.918c1.653,0.723,2.617,2.222,2.737,3.88
	c0.228,3.135,0.097,6.296,0.115,9.446c0.983,1.372,1.203,2.948,1.236,4.574c-0.017,1.529,0.045,3.059,0.092,4.587
	c-0.123,1.779,0.411,3.604,0.133,4.269c0.09-0.58-0.198-2.321,0.018-4.013c0.307-0.477,0.688-0.572,1.154-0.226
	c0,3.308,0,6.616,0,9.925c2.475-7.302,1.667-14.626,0.65-21.989c-0.552-3.998-3.227-8.524,2.326-11.608
	c2,3.427,3.85,6.596,2.539,11.052c-1.361,4.626-0.736,9.537-0.204,14.328C642.21,342.155,641.053,345.836,641.837,348.928z"/>
<path fill="#00CBFD" d="M494.89,417.962c-1.64-1.18-3.251-2.387-4.025-4.365c-0.488-0.46-0.933-0.972-1.205-1.577
	c-0.527-1.17-1.851-2.456-0.889-3.629c1.14-1.389,2.727-0.407,4.015,0.25c8.583,4.378,16.577,9.759,24.544,14.369
	c-6.35-4.958-13.212-9.979-18.691-16.553c-1.336-1.603-3.838-3.624-2.283-5.418c2.114-2.439,4.127,0.472,5.83,1.756
	c6.85,5.16,13.391,10.727,20.444,15.628c-4.709-4.408-9.566-8.661-13.395-13.909c-0.913-1.17-1.77-2.37-2.472-3.69
	c-0.618-1.162-1.689-2.328-0.384-3.524c1.505-1.38,2.718-0.08,3.883,0.797c0.658,0.495,1.243,1.088,1.8,1.694
	c4.466,4.859,9.457,9.199,13.932,14.039c1.306,1.412,2.326,1.531,3.778,0.626c1.171,0.317,2.153,0.988,2.826,1.935
	c4.139,5.816,9.174,10.871,13.783,16.285c3.601,4.23-0.462,7.833-1.07,11.58c-0.441,2.721-3.908,1.25-6.116,1.086
	c-10.356-0.77-20.09-3.998-29.744-7.53c-1.717-0.873-3.632-1.242-5.373-2.057c-1.034-0.538-2.151-0.895-3.196-1.412
	c-1.805-1.026-3.749-1.803-5.449-3.02c-3.444-1.997-6.782-4.138-9.336-7.266c-0.719-0.88-1.692-1.926-0.928-3.087
	c0.713-1.083,2.064-0.949,3.204-0.633c5.447,1.513,10.612,3.742,15.685,6.212c3.991,1.943,7.802,4.397,12.606,4.283
	c-5.284-3.589-11.36-5.604-17.103-8.277C498.652,420.37,496.686,419.253,494.89,417.962z"/>
<path fill="#010202" d="M509.049,436.82c10.577,3.168,21.081,6.522,32.182,7.644c3.004,0.304,2.924-0.59,3.975-2.869
	c2.52-5.465,0.114-8.608-3.406-12.23c-4.585-4.717-8.64-9.95-12.923-14.961c-0.502-0.025-1.113-0.033-1.41-0.384
	c-6.498-7.702-13.089-15.34-17.808-24.344c0.294-0.914-0.98-2.146,0.048-2.676c1.727-0.889,2.184,1.065,2.905,1.949
	c10.864,13.321,21.687,26.676,32.454,40.075c2.16,2.689,3.908,5.308,7.265,1.138c1.137-1.412,3.146-2.414,5.28-2.392
	c1.2-0.225,0.635-1.661,1.468-2.139c1.342,0.406,3.334-0.228,3.361,2.26c0.006,0.577,1.147,1.045-0.487,1.264
	c-6.508,0.871-13.634,7.068-14.802,12.612c-1.204,5.715,3.337,13.608,9.701,17.844c13.072,8.701,35.637,4.066,45.683-7.477
	c0.754-0.867,1.561-1.688,2.344-2.53c0.345,0.417,0.691,0.834,1.036,1.251c-7.539,10.455-17.985,15.227-30.642,15.476
	c-3.059,0.06-5.928,0.126-8.089,3.225c1.71,0.7,3.322,1.352,4.927,2.02c2.308,0.96,4.857,1.759,4.705,4.977
	c-0.184,3.883-3.631,0.426-5.06,2.556c2.789-4.62-0.346-5.314-3.223-6.245c-3.703-1.198-5.537-3.105-2.207-6.491
	c-3.484-1.505-6.812-2.943-10.14-4.38c-2.088,0.861-1.216-1.796-2.395-2.015c-3.862-2.54-6.653-6.038-7.943-10.398
	c-0.758-2.562-2.112-2.794-4.274-2.714c-12.421,0.457-23.619-3.826-34.556-9.069C506.972,435.971,507.994,436.362,509.049,436.82z"
	/>
<path fill="#020505" d="M534.166,331.837c-1.342-3.16-2.684-6.32-4.121-9.702c-4.035,6.422-5.44,17.552-3.6,27.708
	c1.026,5.664,2.409,11.263,3.63,16.892c0.409,1.041,0.891,2.116-0.969,2.12c-4.448-12.003-6.224-24.455-6.03-37.301
	c-4.024,5.635-2.584,11.731-1.563,17.514c4.008,22.706,13.269,43.339,25.583,62.692c0.337,1.02-0.149,1.265-1.052,1.117
	c-15.376-21.34-24.607-45.124-27.721-71.187c-0.572-4.783-1.51-10.57,5.218-12.981c0.693-0.248,0.656-2.416,1.043-3.667
	c0.722-2.336,1.039-5.076,4.398-5.146c3.105-0.065,4.157,2.304,5.185,4.581c0.471,1.044,0.679,2.206,1.006,3.315
	c0.424,0.635,0.727,1.312,0.729,2.096C535.715,330.884,535.599,331.948,534.166,331.837z"/>
<path fill="#020404" d="M509.976,404c5.287,5.412,10.423,10.974,15.867,16.407c-11.093-4.357-18.847-13.748-29.138-19.374
	c5.87,10.258,16.186,16.081,24.034,24.477c-10.778-4.896-20.227-12.109-31.118-17.303c-0.781,2.423,1.588,3.587,1.244,5.39
	c-3.194-0.582-3.971-3.551-3.317-5.506c0.874-2.614,3.597-1.304,5.55-0.512c1.793,0.727,3.509,1.643,6.725,3.173
	c-2.63-3.925-4.526-6.605-6.242-9.395c-0.622-1.011-1.767-2.19-0.603-3.524c1.305-1.495,2.72-0.506,4.082,0
	c3.212,1.194,5.273,4.459,8.884,4.936C507.368,402.915,508.466,404.135,509.976,404z"/>
<path fill="#020607" d="M509.976,404c-2.491,3.348-2.876-0.205-4.033-1.231c-0.707-3.138-3.616-4.971-4.681-7.891
	c-0.664-1.821-1.738-3.588-0.9-5.711c3.69,0.198,5.462,3.897,8.617,4.869c1.491-1.401-2.447-3.325,0.68-4.359
	c6.407,8.242,12.813,16.485,19.218,24.728c-0.334,2.614-1.148,2.981-3.125,0.969c-5.442-5.538-11.02-10.944-16.565-16.381
	c-0.65-0.637-1.016-1.763-2.628-1.488C506.34,400.394,509.379,401.625,509.976,404z"/>
<path fill="#010505" d="M499.764,421.913c7.212,2.506,14.911,4.112,20.027,10.578c-12.557-0.316-21.919-9.734-35.179-11.717
	c2.262,2.408,3.709,4.204,5.42,5.701c1.859,1.626,3.962,2.974,5.959,4.443c0.161,0.956-0.025,1.534-1.166,1.067
	c-4.337-1.83-8.098-4.455-10.951-8.228c-0.976-1.291-2.084-2.808-1.01-4.514c0.983-1.56,2.722-0.837,4.113-0.821
	c3.9,0.045,7.006,2.793,10.78,3.346C498.465,421.273,499.137,421.282,499.764,421.913z"/>
<path fill="#02090B" d="M617.014,321.093c-1.735-0.633-2.593-3.628-4.986-2.242c-2.122,1.23-1.361,3.507-1.164,5.453
	c0.919,9.11,3.034,18.014,4.681,26.998c0.62,3.385,0.926,6.736-1.07,11.115c-1.822-12.792-3.664-24.392-8.002-35.396
	c0.122-0.872,1.364-0.284,1.495-1.146c0.051-1.328-0.088-2.698,0.195-3.975c0.509-2.3,0.075-5.617,3.352-5.892
	C614.666,315.746,616.58,317.874,617.014,321.093z"/>
<path fill="#010B0D" d="M560.791,357.257c-3.29-9.884-2.07-19.778-0.064-29.674c0.358-1.768,0.714-3.537,1.071-5.306
	c-0.547-2.115,0.954-3.317,2.087-4.683c-0.125-0.289-0.054-0.516,0.213-0.683c0.926-0.162,1.446,0.048,1.024,1.119
	c-2.792,12.483-5.46,24.978-3.328,37.893C561.524,356.418,561.468,357.071,560.791,357.257z"/>
<path fill="#010D10" d="M539.201,364.81c-1.693-6.298-2.436-12.722-2.563-19.228c-0.47-4.158,0.42-8.385-0.63-12.514
	c-0.044-1.809-0.197-3.633,0.775-5.292c0.472-2.281,0.944-4.563,1.416-6.844c1.885,0.128,1.142,1.312,0.918,2.286
	c-1.612,13.217-0.718,26.372,0.986,39.506C540.417,363.685,541.039,364.78,539.201,364.81z"/>
<path fill="#0B0F0F" d="M539.118,323.218c-0.306-0.762-0.612-1.524-0.918-2.286c1.469-4.13,0.971-8.88,4.061-12.508
	c2.346-2.755,4.026-3.096,5.413,0.861c1.099,3.135,1.898,6.303,2.382,9.57c-3.409-2.096-2.504-6.748-5.492-9.282
	C541.622,313.735,540.974,318.723,539.118,323.218z"/>
<path fill="#151514" d="M551.134,466.835c3.743,1.729,7.258,3.872,10.264,6.667c1.189,1.106,2.797,2.389,2.09,4.622
	c-0.927,2.931-2.239-0.935-3.162,0.238c-0.505,0.641-0.832,1.439-2.366,1.351c4.051-5.276-0.411-6.6-3.718-8.596
	c-1.51-0.911-2.851-2.104-4.268-3.169C549.64,466.825,550.167,466.6,551.134,466.835z"/>
<path fill="#05090A" d="M559.006,305.869c-2.888,3.19-4.568,7.054-6.125,10.986c-1.003,0.152-1.463-0.178-1.101-1.239
	c0.5-3.782,1.868-7.247,4.268-10.183c0.908-1.111,1.66-3.625,4.007-1.649C560.717,304.989,559.716,305.356,559.006,305.869z"/>
<path fill="#091617" d="M559.006,305.869c0.35-0.695,0.7-1.389,1.05-2.084c3.352,3.286,1.422,7.738,2.516,11.53
	c0.265,0.918-0.789,2.452,1.313,2.28c-0.695,1.561-1.391,3.122-2.086,4.683C559.27,317.08,561.57,311.061,559.006,305.869z"/>
<path fill="#171A1A" d="M551.134,466.835c-0.387,0.371-0.773,0.742-1.16,1.113c-2.79-2.139-0.569-3.393,0.741-5.004
	c0.923-1.135,3.656-0.362,3.074-2.966c0.798,0.672,1.597,1.344,2.395,2.015C554.78,463.898,551.706,464.062,551.134,466.835z"/>
<path fill="#151515" d="M673.021,349.883c-0.768-0.381-1.535-0.762-2.303-1.143c4.707-2.781,9.586-0.45,15.645-0.854
	C681.252,350.106,676.791,347.428,673.021,349.883z"/>
<path fill="#000A0A" d="M559.079,425.632c-0.098,0.982-0.28,1.905-1.468,2.139c0.365-3.244-3.059-3.712-4.302-5.815
	c-0.882-1.492-2.24-2.703-3.386-4.039c0.373-0.4,0.777-0.415,1.208-0.098C554.238,419.958,556.659,422.794,559.079,425.632z"/>
<path fill="#0F171F" d="M551.132,417.819c-0.403,0.033-0.805,0.065-1.208,0.098c-1.717-1.354-2.883-3.131-3.879-5.04
	c0.351-0.373,0.701-0.745,1.052-1.118C548.834,413.518,550.676,415.207,551.132,417.819z"/>
<path fill="#071514" d="M604.099,322.91c-1.863-1.178-3.757-2.066-5.895-0.618c-0.402-0.469-0.804-0.939-1.206-1.408
	C600.042,319.185,602.901,318.139,604.099,322.91z"/>
<path fill="#12303D" d="M551.781,315.617c0.367,0.413,0.734,0.826,1.101,1.239c-0.449,2.081-0.647,4.255-2.163,5.987
	c-1.488-1.209-0.146-2.477-0.18-3.687C550.952,317.976,551.366,316.796,551.781,315.617z"/>
<path fill="#142A2A" d="M509.049,436.82c-0.677,0.326-1.354,0.652-2.032,0.978c-1.58-0.115-3.036-0.54-4.204-1.684
	c0.055-0.733,0.699-0.857,1.184-1.146C505.838,435.157,507.533,435.745,509.049,436.82z"/>
<path fill="#0A0A1E" d="M494.825,431.984c0.389-0.356,0.777-0.711,1.166-1.067c1.879,0.682,3.759,1.363,5.184,2.867
	c-0.126,0.658-0.724,0.748-1.195,0.991C498.027,434.277,496.39,433.196,494.825,431.984z"/>
<path fill="#0D1B22" d="M499.764,421.913c-0.669-0.049-1.339-0.097-2.008-0.146c-0.484-1.624-2.871-1.813-2.866-3.805
	C497.202,418.431,499.51,418.905,499.764,421.913z"/>
<path fill="#0C0C19" d="M607.967,325.877c0.096,0.987,0.096,0.987-1.495,1.146c-0.827-1.411-1.653-2.822-2.479-4.233
	C607.027,321.619,606.342,325.235,607.967,325.877z"/>
<path fill="#0D1925" d="M618.928,325.989c-1.508-1.105-1.233-2.906-1.72-4.409c1.731,0.435,2.23,1.843,2.63,3.329
	C619.535,325.269,619.231,325.629,618.928,325.989z"/>
<path fill="#090802" d="M720.804,410.895c-2.252-0.291-4.656,0.749-6.769-0.768C716.297,410.332,718.721,409.111,720.804,410.895z"
	/>
<path fill="#989898" d="M536.784,327.776c0.024,1.679,0.049,3.358,0.073,5.036c-0.36,0.349-0.74,0.371-1.137,0.065
	c-0.548-1.015,0.05-2.237-0.58-3.238c0.011-0.616,0.023-1.232,0.034-1.848C535.71,327.786,536.247,327.781,536.784,327.776z"/>
<path fill="#182929" d="M565.121,318.031c-0.341-0.373-0.683-0.746-1.024-1.119c-0.229-1.224,0.654-2.038,1.112-3.009
	c1.073-0.03,1.304,0.512,0.974,1.435C566.151,316.363,566.002,317.342,565.121,318.031z"/>
<path d="M499.98,434.775c0.398-0.33,0.797-0.661,1.195-0.991c0.94,0.395,1.881,0.789,2.822,1.184
	c-0.395,0.382-0.79,0.763-1.185,1.145C501.869,435.667,500.924,435.221,499.98,434.775z"/>
<path fill="#133232" d="M566.183,315.339c-0.325-0.478-0.65-0.957-0.974-1.435c0.41-0.694,0.819-1.388,1.229-2.082
	c0.502-0.46,0.987-0.442,1.453,0.054C567.322,313.03,566.752,314.184,566.183,315.339z"/>
<path fill="#00000A" d="M567.891,311.876c-0.484-0.018-0.968-0.036-1.453-0.054c0.498-1.184,0.948-2.405,2.182-3.066
	c0.49,0.056,0.981,0.113,1.471,0.169C569.358,309.908,568.624,310.892,567.891,311.876z"/>
<path fill="#001315" d="M548.821,348.162c-1.477-8.101-1.404-16.11,1.532-23.963c-0.602,6.914-0.392,13.832-0.528,20.744
	C549.06,345.882,550.054,347.369,548.821,348.162z"/>
<path fill="#555566" d="M536.154,332.799c0.233,0.065,0.467,0.07,0.703,0.013c-0.072,4.262-0.145,8.523-0.218,12.778
	c-1.111-3.521-0.012-7.181-0.705-10.722C535.456,334.119,535.378,333.414,536.154,332.799z"/>
<path d="M548.821,348.162c0.349-1.068-0.049-2.37,1.004-3.219c0.111,2.94,0.223,5.879,0.334,8.819c0.253,1,0.848,2.177-1.064,2.057
	C549.004,353.267,548.912,350.714,548.821,348.162z"/>
<path fill="#00515F" d="M549.095,355.819c0.956-0.375,0.716-1.368,1.064-2.057c1.24,1.631,0.713,3.478,0.643,5.269
	c-0.523,0.565-0.033,1.597-0.921,1.993C548.865,359.402,548.822,357.635,549.095,355.819z"/>
<path fill="#002828" d="M551.003,363.889c1.475,1.892,0.911,4.056,0.238,6.283c-0.35-2.099-0.7-4.198-1.05-6.297
	C550.47,363.421,550.74,363.403,551.003,363.889z"/>
<path fill="#000C0C" d="M562.167,360.597c1.23,2.167,0.756,4.474,0.779,7.323c-1.485-2.194-1.218-4.228-1.685-6.068
	C561.468,361.365,561.519,360.765,562.167,360.597z"/>
<path fill="#00070E" d="M562.167,360.597c-0.302,0.418-0.604,0.837-0.906,1.255c-0.157-1.532-0.313-3.063-0.47-4.595
	c0.334-0.444,0.668-0.889,1.002-1.333C561.918,357.482,562.043,359.04,562.167,360.597z"/>
<path fill="#003036" d="M539.201,364.81c0.301-0.695,0.602-1.391,0.903-2.086c0.713,1.33,1.643,2.886-0.098,3.859
	C539.293,366.983,539.29,365.53,539.201,364.81z"/>
<path fill="#001919" d="M536.154,332.799c-0.073,0.69-0.146,1.379-0.22,2.068c-1.204-0.652-1.48-1.845-1.768-3.03
	c0.324-0.733,0.648-1.465,0.973-2.198C536.132,330.483,536.015,331.682,536.154,332.799z"/>
<path fill="#001820" d="M529.106,368.854c0.323-0.706,0.646-1.413,0.969-2.119c1.133,1.039,0.865,2.508,1.17,3.802
	c0.351,1.098-0.148,1.447-1.173,1.331C529.75,370.863,529.428,369.858,529.106,368.854z"/>
<path fill="#003344" d="M530.073,371.867c0.391-0.444,0.782-0.887,1.173-1.331c0.907,1.212,1.201,2.527,0.677,4.16
	C530.458,374.222,530.298,373.022,530.073,371.867z"/>
<path fill="#00190C" d="M551.003,363.889l-0.406-0.024c0,0-0.406,0.01-0.406,0.01c-0.104-0.951-0.207-1.901-0.311-2.852
	c0.307-0.664,0.614-1.329,0.921-1.993C550.869,360.65,550.936,362.27,551.003,363.889z"/>
<path fill="#00CBFE" d="M675.008,429.783c1.544,1.842-0.435,2.349-1.311,2.914c-13.659,8.817-28.587,13.654-44.847,11.626
	c-13.88-1.732-21.173-12.112-26.713-23.714c-7.193-15.064-4.401-28.766,5.781-41.639c11.943-15.099,27.883-23.556,46.247-26.88
	c9.628-1.743,19.952-1.67,28.678,5.027c8.841,6.785,12.743,16.214,15.162,26.643c1.66,7.157-0.202,13.805-2.097,20.533
	c-0.62,2.201-1.705,2.978-3.979,2.209c-3.011-1.019-5.618-2.484-7.758-4.932c-3.492-3.995-5.118-4.075-8.301-0.162
	c-2.72,3.345-5.763,6.322-8.775,9.378c-3.438,3.488-1.493,7.421,0.174,11.115c2.102,1.117,2.418,3.723,4.244,5.063
	C672.738,427.827,674.182,428.426,675.008,429.783z"/>
<path fill="#01C3F4" d="M643.746,322.992c2.026,1.918,2.781,4.378,3.288,6.845c1.279,6.224,0.876,12.518,0.597,18.815
	c-0.097,2.196-1.202,3.065-2.987,3.061c-2.833-0.006-1.27-2.031-1.171-3.222C644.181,340.032,644.304,331.57,643.746,322.992z"/>
<path fill="#FECB00" d="M685.001,422.058c4.972,0.028,9.943,0.056,14.915,0.084c0.738,2.084-0.874,3.134-1.946,4.421
	c-0.99,0.053-1.98,0.107-2.971,0.16c-1.457-1.356-2.956-2.366-4.789-0.564c-1.797,0.84-3.013-0.201-4.221-1.285
	c-0.489-0.467-0.901-0.994-1.204-1.602C684.63,422.829,684.703,422.423,685.001,422.058z"/>
<path fill="#FECB00" d="M689.033,419.13c-0.68-0.397-1.36-0.794-2.04-1.191c-0.257-0.305-0.336-0.654-0.262-1.042
	c0.19-0.329,0.429-0.621,0.696-0.889c0.378-0.425,0.733-0.87,1.038-1.355c0.288-0.534,0.586-1.058,0.93-1.564
	c0.27-0.354,0.605-0.619,0.998-0.824c0.654-0.254,1.327-0.327,2.024-0.259c0.481,0.082,0.927,0.247,1.35,0.487
	c1.085,0.893,1.269,2.073,1.089,3.375c-0.221,1.028-0.729,1.887-1.514,2.585C692.008,419.312,690.587,419.646,689.033,419.13z"/>
<path fill="#FECB00" d="M672.89,409.845c0.76-1.93,2.118-3.264,4.03-4.048c0.202,0.014,0.404,0.028,0.608,0.039
	c0.405,0.085,0.787,0.229,1.158,0.414c0.368,0.211,0.689,0.476,0.983,0.781c1.136,1.464,0.488,2.824-0.237,4.184
	c-0.945,1.201-1.966,2.284-3.681,2.192c-0.398-0.112-0.758-0.304-1.072-0.576c-0.414-0.429-0.759-0.917-1.095-1.41
	C673.241,410.947,672.956,410.443,672.89,409.845z"/>
<path fill="#0087AD" d="M641.837,348.928c-0.924-3.05-1.848-6.1-2.772-9.15c2.466-1.623,1.215-4.549,2.772-7.588
	C641.837,338.385,641.837,343.657,641.837,348.928z"/>
<path fill="#FECB00" d="M688.124,416.791c-0.382,0.033-0.765,0.066-1.147,0.1c-0.383,0.07-0.692,0.26-0.928,0.576
	c-0.303,0.251-0.648,0.409-1.032,0.479c-0.673-0.074-1.347-0.149-2.02-0.223c-0.751-0.659-0.854-1.502-0.7-2.422
	c0.76-1.531,0.792-3.356,1.891-4.76c0.437-0.16,0.882-0.188,1.339-0.109c1.535,0.763,2.744,1.809,3.132,3.575
	C688.464,414.931,688.618,415.924,688.124,416.791z"/>
<path fill="#FECB00" d="M685,410.89c-0.333,0-0.667,0-1,0c-0.337,0.324-0.728,0.438-1.184,0.312
	c-1.866-0.728-2.139-2.635-3.024-4.09c-0.207-0.396-0.244-0.804-0.088-1.226c0.275-0.335,0.615-0.586,1.006-0.772
	c1.006-0.356,2.02-0.664,3.081-0.197c0.357,1.091,1.379,0.909,2.185,1.141c0.276,0.5,0.195,1.056,0.26,1.59
	c0.083,0.542,0.153,1.086,0.15,1.638C686.266,410.115,685.661,410.527,685,410.89z"/>
<path fill="#ECC204" d="M668.114,419.719c1.67-3.299,3.309-2.298,4.94,0.035c0.851,1.865-0.41,3.178-1.201,4.618
	c-0.317,0.38-0.714,0.639-1.186,0.785C667.92,424.236,668.906,421.56,668.114,419.719z"/>
<path fill="#FECB00" d="M675.011,412.879c1.739,0.158,2.606-1.433,3.989-1.989c1.035-0.574,1.632,0.082,2.213,0.786
	c0.413,1.47-0.552,2.463-1.227,3.56c-0.267,0.345-0.596,0.617-0.987,0.812c-1.926-0.116-3.727-0.537-5.07-2.076
	c0,0,0.076-0.413,0.073-0.414c0.145-0.25,0.345-0.445,0.596-0.588C674.597,412.968,675.011,412.879,675.011,412.879z"/>
<path fill="#F0C20A" d="M670.964,424.995c0.011-0.356,0.023-0.711,0.035-1.067c1.372-1.051,2.76-1.957,4.415-0.489
	c0.724,0.689,1.217,1.503,1.346,2.513c0.03,0.762-0.158,1.442-0.751,1.967c-0.338,0.049-0.676,0.099-1.014,0.148
	c-1.196,0.541-2.324,0.53-3.34-0.407C671.061,426.866,670.5,426.063,670.964,424.995z"/>
<path fill="#FECB00" d="M678.007,420.871c0.631,0.323,1.262,0.645,1.893,0.968c0.395-0.26,0.789-0.271,1.182,0.004l-0.038-0.052
	c0.283,0.356,0.568,0.71,0.859,1.062c0.742,1.376,0.46,2.663-0.337,3.907c-0.318,0.337-0.7,0.577-1.133,0.739
	c-0.455,0.062-0.906,0.033-1.351-0.091c-0.639-0.267-1.172-0.683-1.645-1.184c-0.45-0.518-0.739-1.12-0.905-1.785
	C676.598,423.076,676.828,421.777,678.007,420.871z"/>
<path fill="#090802" d="M689.033,419.13c1.463-0.033,2.873-0.224,3.977-1.329c1.74-0.458,3.543-0.453,5.309-0.73
	c0.457,0.015,0.899,0.105,1.328,0.265c0.635,0.322,1.033,0.859,1.327,1.488C697.039,420.685,693.044,420.23,689.033,419.13z"/>
<path fill="#FECB00" d="M681,426.89c0.055-1.344,0.949-2.685,0.011-4.031c0.27-0.333,0.597-0.597,0.973-0.801
	c1.006,0,2.011,0,3.017,0c0.002,0.288,0.005,0.576,0.01,0.864c0.562,0.749,0.733,1.579,0.521,2.487
	c-1.438,0.444-2.185,1.87-3.506,2.488c-0.341,0.011-0.681,0.023-1.022,0.034c-0.128-0.173-0.255-0.346-0.383-0.519
	C680.747,427.238,680.874,427.064,681,426.89z"/>
<path fill="#F7C500" d="M694.002,415.885c-0.032-1.109,0.166-2.296-1.027-3.008c-0.242-0.251-0.365-0.552-0.392-0.898
	c-0.02-0.339-0.008-0.677,0.017-1.016c0.036-0.344,0.164-0.651,0.391-0.914c1.564-0.574,2.772,0.279,4.014,1
	c1.246,1.46,0.676,2.772-0.323,4.054C695.914,415.785,695.121,416.399,694.002,415.885z"/>
<path fill="#FECB00" d="M695.995,414.888c0.646-1.199,1.157-2.433,1.01-3.84c1.124-0.159,2.25-0.326,2.997,0.847
	c2.579,2.058,0.652,3.154-0.922,4.33C697.776,416.419,696.734,416.003,695.995,414.888z"/>
<path fill="#FECB00" d="M690,425.89c0.785-1.115,0.874-3.224,2.871-2.726c1.595,0.398,1.856,2.099,2.129,3.559
	c-0.295,0.126-0.602,0.207-0.921,0.242c0,0-0.438-0.076-0.438-0.075c0,0.002-0.056-0.435-0.056-0.435s-0.194,0.395-0.194,0.398
	c-0.186,0.261-0.436,0.418-0.75,0.474c-0.272-0.136-0.552-0.249-0.842-0.339c-0.542,0.092-1.084,0.184-1.626,0.276
	C689.685,426.86,689.627,426.402,690,425.89z"/>
<path fill="#FECB00" d="M675.007,423.923c-1.337-0.991-2.672-0.08-4.008,0.005c0.685-1.391,1.37-2.783,2.055-4.175
	c0.979,0.095,1.958,0.191,2.937,0.286C677.216,421.728,676.833,423.008,675.007,423.923z"/>
<path fill="#212010" d="M670.964,424.995c0.302,0.641,0.604,1.281,0.907,1.922c-0.248,0.516-0.39,1.119-1.057,1.293
	c-2.144-1.564-2.639-4.055-3.545-6.313c0.282-0.726,0.563-1.452,0.845-2.179C669.489,421.248,669.193,423.68,670.964,424.995z"/>
<path fill="#F6C300" d="M681.124,405.815c-0.384,0.029-0.769,0.058-1.153,0.087c-0.198,0.265-0.368,0.547-0.51,0.848
	c0.001,0.001-0.473,0.148-0.473,0.148c-0.338-0.008-0.676-0.015-1.014-0.023c-0.263-0.294-0.545-0.569-0.846-0.823
	c0,0-0.208-0.255-0.208-0.255c0.149-1.564-0.066-3.332,2.114-3.751C680.94,402.632,682.611,403.347,681.124,405.815z"/>
<path fill="#003366" d="M631.131,333.854c-0.004-1.659-0.007-3.317-0.011-4.975c2.581,0.838,2.792,2.879,2.602,5.124
	C632.757,335.719,631.914,335.313,631.131,333.854z"/>
<path fill="#FECB00" d="M699,415.89c0.54-1.28,2.281-2.258,1.002-3.995c0.666,0.054,1.332,0.108,1.997,0.162
	c0.677,0.593,1.397,1.153,1.658,2.08c0.277,1.185,0.186,2.267-0.881,3.066c-0.429,0.142-0.871,0.219-1.325,0.222
	c-0.442,0.084-0.888,0.11-1.337,0.072c-0.442-0.078-0.866-0.214-1.269-0.416C698.624,416.649,698.676,416.252,699,415.89z"/>
<path fill="#FECB00" d="M703.029,413.901c-0.78-0.371-0.998-1.055-1.029-1.844c2.109-0.367,4.084,0.073,5.976,1
	c0.37,1.419-0.543,1.97-1.624,2.41c-0.433,0.068-0.865,0.05-1.293-0.042C704.19,415.177,703.631,414.511,703.029,413.901z"/>
<path fill="#FECB33" d="M703.029,413.901c0.811,0.009,1.555,0.158,1.982,0.96c0.293,0.26,0.521,0.568,0.676,0.929
	c0.079,0.386,0.076,0.772,0.009,1.159c-0.152,0.362-0.376,0.676-0.66,0.947c-1.02,1.239-2.041,1.248-3.065,0.005
	c-0.33-0.213-0.436-0.42-0.318-0.62c0.115-0.196,0.23-0.294,0.346-0.294C703.221,416.252,702.941,415.015,703.029,413.901z"/>
<path fill="#FECB33" d="M709.028,412.918c0.999-1.357,1.986,0.095,2.98,0.011c0.327,0.3,0.531,0.668,0.616,1.103
	c-0.101,0.629-0.104,1.301-0.752,1.686c-0.905,0.481-1.684,1.353-2.88,0.923C708.139,415.392,708.648,414.156,709.028,412.918z"/>
<path fill="#FECB00" d="M709.028,412.918c0.913,1.25,0.218,2.485-0.036,3.724c-0.933,0.542-1.651,1.678-2.995,1.08
	c-0.311-0.202-0.467-0.488-0.469-0.859c-0.008-0.349-0.006-0.699,0.004-1.048c0.037-0.357,0.178-0.665,0.439-0.915
	c0.668-0.614,1.337-1.229,2.005-1.843C708.327,413.011,708.677,412.965,709.028,412.918z"/>
<path fill="#FECB00" d="M690,425.89c0.057,0.458,0.115,0.916,0.172,1.374c-0.679,1.638-1.958,1.454-3.297,1.084
	c-1.737-1.215-1.797-2.742-0.828-4.459C687.399,424.489,688.272,426.033,690,425.89z"/>
<path fill="#EEC300" d="M675.007,423.923c0.622-1.22,1.173-2.458,0.984-3.883c0.878-0.222,1.569,0.01,2.016,0.832
	c0.138,1.467-0.351,2.779-1.004,4.049c0.261,0.233,0.363,0.48,0.306,0.742c-0.058,0.268-0.126,0.403-0.203,0.403
	c-0.446,0.235-0.815,0.147-1.108-0.265C675.668,425.174,675.337,424.548,675.007,423.923z"/>
<path fill="#F7C500" d="M692.025,412.877c-0.685,0.007-1.369,0.015-2.054,0.022c-0.348,0.327-0.733,0.394-1.159,0.162
	c-0.822-1.202-0.339-2.514-0.326-3.79c0.042-0.437,0.209-0.821,0.51-1.143c1.491-0.312,2.435,0.388,3.07,1.66
	c0.245,0.293,0.412,0.624,0.488,1c0.082,0.373,0.089,0.747,0.013,1.121C692.487,412.288,692.3,412.608,692.025,412.877z"/>
<path fill="#FECB00" d="M672.89,409.845c0.373,0.355,0.747,0.711,1.12,1.066c0,0-0.023,0.421-0.021,0.421
	c-0.015,0.284,0.007,0.564,0.072,0.843c0.1,0.27,0.197,0.54,0.298,0.809c0.002,0.001,0.011,0.434,0.011,0.434
	c0,0.001-0.276,0.336-0.276,0.336s-0.166,0.219-0.166,0.219c-1.575-0.101-3.556,0.107-3.77-1.998
	C670.005,410.454,671.631,410.136,672.89,409.845z"/>
<path fill="#F6C308" d="M697.97,426.563c0.649-1.474,1.298-2.948,1.946-4.421c0.673,0.214,1.346,0.429,2.019,0.643
	c0.16,0.192,0.321,0.383,0.481,0.575c0.053,0.515-0.085,0.974-0.413,1.375C700.659,425.343,699.315,425.953,697.97,426.563z"/>
<path fill="#FECB33" d="M678.999,416.048c0.002-0.376,0.004-0.753,0.007-1.129c1.32-0.87,2.641-1.25,3.967-0.011
	c0.008,0.938,0.016,1.877,0.024,2.815C681.285,418.071,679.826,417.815,678.999,416.048z"/>
<path fill="#00667F" d="M631.131,333.854c0.829,0.66,1.686,0.848,2.592,0.148c0.01,1.356,0.021,2.712,0.032,4.068l-0.236,0.086
	l-0.247-0.046c-0.495-0.358-0.992-0.473-1.498-0.021C630.574,336.828,631.089,335.305,631.131,333.854z"/>
<path fill="#FECB33" d="M681.124,405.815c0.293-1.805-0.915-2.778-2.09-3.769c2.538-0.621,3.914,0.682,4.757,2.87
	C682.902,405.216,682.013,405.515,681.124,405.815z"/>
<path fill="#FECB33" d="M682.026,427.897c0.807-0.939,0.676-3.325,2.991-1.939c0.666,0.828,0.827,1.655-0.006,2.479
	C683.933,428.712,682.848,429.031,682.026,427.897z"/>
<path fill="#FECB33" d="M685.011,428.437c0.002-0.827,0.003-1.654,0.005-2.48c-0.002-1.012-0.004-2.024-0.006-3.036
	c0.345,0.323,0.691,0.645,1.036,0.968c0.278,1.486,0.555,2.973,0.83,4.459C686.254,428.378,685.632,428.408,685.011,428.437z"/>
<path fill="#0A000A" d="M670.814,428.211c0.352-0.431,0.704-0.862,1.057-1.293c0.607,1.564,2.107,0.7,3.124,1.149
	c0.004,0.572,0.009,1.144,0.013,1.716C673.662,429.12,671.853,429.694,670.814,428.211z"/>
<path fill="#FECB33" d="M677.005,425.918c-0.007-0.333-0.008-0.665-0.002-0.998c0.327,0.344,0.654,0.689,0.981,1.033
	c0.671,0.823,0.799,1.651,0.023,2.488c-0.334,0.005-0.668,0.009-1.003,0.014C676.343,427.609,676.307,426.764,677.005,425.918z"/>
<path fill="#FECB33" d="M701.935,422.785c0.407-1.007,1.109-1.474,2.16-1.015c0.662,0.289,1.067,0.734,0.035,1.146
	c-0.665,0.548-1.339,0.555-2.023,0.036L701.935,422.785z"/>
<path fill="#FECB00" d="M714.345,412.015c0.436,0.953,1.445,1.986-0.363,2.63c-0.35-0.12-0.688-0.267-1.017-0.437
	c-0.107-0.151-0.213-0.302-0.32-0.454c-0.071-0.377,0.007-0.725,0.211-1.047C713.28,412.322,713.818,412.181,714.345,412.015z"/>
<path fill="#FECB00" d="M702.107,422.951c0.674-0.012,1.348-0.023,2.022-0.035c-0.489,0.862-0.942,1.768-2.126,1.818
	C702.038,424.139,702.073,423.545,702.107,422.951z"/>
<path fill="#FECB33" d="M686.016,416.953c0.276-0.707,0.591-0.809,0.961-0.063c0.005,0.349,0.011,0.699,0.016,1.048
	c-0.167,0.472-0.358,0.902-0.991,0.589C685.434,417.998,685.474,417.473,686.016,416.953z"/>
<path fill="#FECB33" d="M677.005,425.918c0,0.846,0,1.691,0,2.537c-0.657,0.425-0.826-0.059-0.996-0.536
	c-0.003-0.705-0.006-1.41-0.01-2.117C676.334,425.839,676.669,425.879,677.005,425.918z"/>
<path fill="#FECB00" d="M685.014,407.918c0.321-0.62,0.641-1.241,0.962-1.861c0.666-0.2,0.933,0.185,1.083,0.74
	c0.239,0.445,0.178,0.856-0.144,1.237C686.252,408.463,685.62,408.411,685.014,407.918z"/>
<path fill="#FECB33" d="M678.007,428.441c-0.008-0.83-0.015-1.66-0.023-2.489c0.334,0.333,0.668,0.665,1.002,0.997
	c0.608,0.488,0.526,0.986,0.021,1.489C678.674,428.439,678.34,428.44,678.007,428.441z"/>
<path fill="#FECB33" d="M679.007,428.438c-0.007-0.497-0.014-0.994-0.021-1.49c0.328-0.038,0.657-0.054,0.987-0.048
	c0.308,0.27,0.609,0.547,0.904,0.831c0,0,0.127,0.199,0.126,0.199C680.555,428.953,679.763,428.625,679.007,428.438z"/>
<path fill="#FECB33" d="M686.016,416.953c-0.005,0.525-0.009,1.049-0.014,1.574c-0.613,0.287-0.816-0.119-0.986-0.582
	C685.35,417.615,685.683,417.284,686.016,416.953z"/>
<path fill="#FECB33" d="M713.007,412.752c0.002,0.383,0.004,0.767,0.005,1.15c-0.371,0.411-0.711,0.368-1.026-0.068
	c0.008-0.302,0.015-0.603,0.021-0.905c0.211-0.299,0.423-0.598,0.634-0.897c0.36,0.019,0.534,0.131,0.522,0.339
	C713.151,412.625,713.099,412.752,713.007,412.752z"/>
<path fill="#FECB00" d="M711.987,413.834c0.342,0.023,0.684,0.045,1.026,0.068c0,0-0.026-0.028-0.026-0.028
	c0.257,0.227,0.354,0.465,0.293,0.715c-0.063,0.256-0.133,0.384-0.212,0.384c-0.172,0.609-0.513,0.949-1.195,0.746
	C711.91,415.091,711.948,414.462,711.987,413.834z"/>
<path fill="#FECB00" d="M694.078,426.965c-0.15,0.552-0.424,0.938-1.083,0.8c-0.223-0.198-0.296-0.395-0.218-0.589
	c0.077-0.194,0.153-0.291,0.229-0.291l-0.022,0.019c0.256-0.334,0.549-0.37,0.878-0.108L694.078,426.965z"/>
<path fill="#FECB33" d="M693.005,426.884c-0.004,0.293-0.007,0.587-0.01,0.88c-0.73,0.25-1-0.207-1.196-0.778
	C692.201,426.953,692.603,426.919,693.005,426.884z"/>
<path fill="#090802" d="M713.007,412.752c-0.112-0.245-0.234-0.485-0.364-0.72c0.566-0.006,1.133-0.012,1.701-0.017
	C713.899,412.26,713.453,412.506,713.007,412.752z"/>
<path fill="#FECB33" d="M713.068,414.973c-0.027-0.366-0.054-0.733-0.081-1.099c0.332,0.257,0.663,0.513,0.995,0.77
	C713.704,414.828,713.4,414.938,713.068,414.973z"/>
<path fill="#FECB33" d="M702,416.988c0,0.305-0.009,0.61-0.028,0.914c-0.302-0.016-0.602,0.004-0.899,0.061
	c-0.155-0.169-0.31-0.339-0.465-0.508c0.132-0.188,0.265-0.375,0.397-0.563C701.336,416.924,701.668,416.956,702,416.988z"/>
<path fill="#FECB33" d="M706,416.891c-0.004,0.277-0.005,0.554-0.003,0.832c-0.306,0.138-0.626,0.196-0.96,0.175
	c-0.012-0.334-0.024-0.669-0.037-1.003C705.331,416.448,705.665,416.424,706,416.891z"/>
<path fill="#FECB33" d="M700.974,418.823c-0.67,0.156-0.963-0.215-1.107-0.793c0.155-0.186,0.311-0.372,0.466-0.559
	c0.208,0.125,0.415,0.25,0.623,0.376l0.117,0.117C701.014,418.247,700.981,418.533,700.974,418.823z"/>
<path fill="#FECB33" d="M692,410.889c0.022-0.367,0.043-0.735,0.065-1.102c0.316,0.061,0.625,0.148,0.926,0.261
	c0.005,0.284,0.004,0.567-0.003,0.851c-0.166,0.134-0.332,0.268-0.498,0.403C692.327,411.165,692.164,411.027,692,410.889z"/>
<path fill="#FECB33" d="M688.996,408.128c-0.016,0.247-0.03,0.494-0.042,0.742c-0.368,0.258-0.743,0.268-1.126,0.031
	c-0.053-0.202-0.105-0.403-0.158-0.605c0.132-0.161,0.266-0.321,0.399-0.481C688.403,407.845,688.712,407.949,688.996,408.128z"/>
<path fill="#FECB33" d="M687.014,407.904c0.015-0.369,0.03-0.738,0.045-1.106c0.337,0.339,0.674,0.678,1.011,1.017
	c0,0-0.117,0.123-0.117,0.123c-0.16,0.104-0.321,0.208-0.481,0.313C687.319,408.135,687.166,408.019,687.014,407.904z"/>
<path fill="#FECB33" d="M681.082,421.844c-0.394-0.001-0.788-0.002-1.182-0.004c0.255-0.239,0.511-0.478,0.766-0.717
	C680.805,421.363,680.944,421.604,681.082,421.844z"/>
<path fill="#FECB33" d="M681.984,422.057c-0.325,0.267-0.649,0.535-0.973,0.802c0.011-0.356,0.022-0.711,0.034-1.067
	C681.367,421.847,681.68,421.935,681.984,422.057z"/>
<path fill="#003939" d="M631.774,338.09c0.511-0.814,1.01-0.831,1.498,0.021c-0.38,2.05,0.49,4.244-0.709,6.341
	C631.494,342.339,631.945,340.175,631.774,338.09z"/>
<path fill="#00080A" d="M658.706,392.296c1.055,5.833-0.042,10.629-1.28,15.393c-0.278,1.072-0.785,2.399-2.351,1.956
	c-1.217-0.344-1.161-1.545-1.07-2.509C654.479,402.15,653.265,396.599,658.706,392.296z"/>
<path fill="#000D10" d="M649.988,359.859c-6.581,6.327-11.524,13.894-16.346,21.578c2.516-9.274,7.283-17.011,15.219-22.619
	C649.897,358.45,650.136,358.945,649.988,359.859z"/>
<path fill="#000607" d="M683.14,388.022c-0.288,1.945,0.154,6.441-3.717,6.239c-3.117-0.163-1.063-4.407-1.512-6.792
	c-0.146-0.774,0.022-1.692,0.308-2.445c0.623-1.644,0.937-4.112,3.096-3.958c2.628,0.188,1.295,2.874,1.803,4.423
	C683.265,385.937,683.14,386.474,683.14,388.022z"/>
<path fill="#00171C" d="M649.988,359.859c-0.376-0.347-0.752-0.694-1.128-1.041c1.223-1.458,2.611-2.666,4.569-3.006
	c0.583-0.356,1.137-0.316,1.663,0.121C653.391,357.242,651.689,358.55,649.988,359.859z"/>
<path d="M655.092,355.933c-0.554-0.04-1.107-0.081-1.662-0.121c0.875-0.929,2.104-2.406,3.098-1.524
	C657.523,355.171,655.96,355.649,655.092,355.933z"/>
<path fill="#FECB00" d="M699,415.89c0.004,0.343,0.007,0.686,0.011,1.029c0.343,0.193,0.458,0.388,0.347,0.585
	c-0.112,0.198-0.224,0.297-0.339,0.297c-2.003,0.472-4.005,2.313-6.008,0c0.331-0.639,0.661-1.277,0.992-1.916
	c0.664-0.332,1.329-0.664,1.993-0.997C696.997,415.222,697.998,415.556,699,415.89z"/>
<path fill="#FECB33" d="M688.124,416.791c-0.036-0.958-0.071-1.916-0.107-2.874c0.165-0.151,0.33-0.302,0.496-0.453
	c0.204,0.094,0.407,0.189,0.611,0.284c0.275,0.423,0.227,0.805-0.143,1.147C688.696,415.527,688.41,416.159,688.124,416.791z"/>
<path fill="#FECB00" d="M688.981,414.896c0.002-0.339,0.004-0.679,0.006-1.018c0.328-0.382,0.661-0.388,1.002-0.017
	C689.653,414.206,689.317,414.551,688.981,414.896z"/>
<path fill="#FECB33" d="M692.025,412.877c-0.017-0.328-0.025-0.657-0.024-0.986c0.163-0.141,0.327-0.282,0.49-0.426
	c0.166,0.137,0.332,0.277,0.498,0.417c0.006,0.332,0.002,0.664-0.013,0.995c0,0-0.476,0.006-0.476,0.006L692.025,412.877z"/>
<path fill="#FECB33" d="M689.989,413.861c-0.334,0.006-0.668,0.011-1.001,0.017c0,0,0.026,0.026,0.026,0.026
	c-0.316-0.22-0.422-0.439-0.317-0.659c0.105-0.22,0.21-0.33,0.316-0.33c0.319-0.013,0.639-0.018,0.958-0.016
	C689.989,413.219,689.995,413.54,689.989,413.861z"/>
<path fill="#FECB00" d="M681,411.89c-0.667-0.333-1.333-0.667-2-1c0.033-1.331,0.981-2.665-0.011-3.993c0,0,0.024-0.022,0.024-0.022
	c0.321-0.329,0.64-0.344,0.958,0.004c1.01,1.337,2.019,2.674,3.029,4.011C682.614,411.784,682.085,412.393,681,411.89z"/>
<path fill="#FECB00" d="M674.987,411.862c0.008,0.339,0.016,0.678,0.024,1.018c0,0-0.026,0.023-0.026,0.023
	c-0.34,0.296-0.674,0.302-0.998-0.025l0.027,0.03c-0.127-0.173-0.255-0.346-0.383-0.519c0.074-0.202,0.15-0.403,0.226-0.605
	C674.252,411.527,674.63,411.539,674.987,411.862z"/>
<path fill="#FECB33" d="M674.987,411.862c-0.333,0.014-0.666,0.027-0.999,0.041c-0.247-0.231-0.325-0.457-0.234-0.679
	c0.09-0.219,0.178-0.328,0.264-0.328c0,0-0.007,0.014-0.007,0.014C674.336,411.228,674.661,411.545,674.987,411.862z"/>
<path fill="#FECB33" d="M677.128,406.052c0.282,0.274,0.565,0.549,0.847,0.823C677.692,406.6,677.41,406.326,677.128,406.052z"/>
<path fill="#FECB00" d="M689.013,412.915c-0.008,0.329-0.008,0.659,0,0.989c0,0-0.498-0.002-0.498-0.002s-0.498,0.016-0.498,0.016
	c-1.006-1.009-2.011-2.018-3.017-3.027c0.333-0.651,0.666-1.302,0.999-1.953c0.232-0.352,0.559-0.523,0.98-0.515
	c0.419-0.013,0.757,0.15,1.026,0.466c0.317,0,0.633-0.006,0.949-0.018C690.83,410.191,688.63,411.571,689.013,412.915z"/>
<path fill="#FECB00" d="M681,411.89c0.667-0.333,1.333-0.667,2-1c0.333,0,0.667,0,1,0c0.884,1.652,0.426,2.962-1.027,4.017
	c-1.323,0.004-2.645,0.007-3.967,0.011C679.671,413.909,680.335,412.9,681,411.89z"/>
<path fill="#FECB33" d="M686.994,408.888c-0.332,0.002-0.664,0.018-0.995,0.049c-0.329-0.339-0.657-0.679-0.986-1.018
	c0.667-0.005,1.333-0.01,2-0.015c0,0-0.016-0.016-0.016-0.016c0.259,0.223,0.345,0.446,0.258,0.668
	C687.168,408.777,687.081,408.888,686.994,408.888z"/>
<path fill="#FECB33" d="M679.971,406.879l-0.479,0.004c0,0-0.479-0.008-0.479-0.008c0.32-0.325,0.64-0.649,0.959-0.974
	C679.989,406.227,679.989,406.553,679.971,406.879z"/>
<path fill="#FECB33" d="M673.986,412.877c0.333,0.009,0.666,0.017,0.999,0.025c-0.297,0.285-0.594,0.569-0.89,0.852
	C674.039,413.464,674.002,413.171,673.986,412.877z"/>
<path fill="#FECB00" d="M680.878,427.732c-0.301-0.277-0.602-0.554-0.904-0.831c0.342-0.003,0.684-0.007,1.026-0.01
	C680.99,427.175,680.949,427.456,680.878,427.732z"/>
<path fill="#FECB33" d="M699.018,417.801c-0.01-0.294-0.012-0.588-0.008-0.882c0.328-0.018,0.656-0.027,0.984-0.027
	c0.255,0.206,0.345,0.418,0.271,0.636c-0.075,0.221-0.153,0.332-0.235,0.332l-0.163,0.171
	C699.562,418.035,699.279,417.959,699.018,417.801z"/>
<path fill="#FECB33" d="M692.989,410.898c0.731,0.328,0.731,0.655,0,0.983c0,0,0.012,0.009,0.012,0.009
	c-0.257-0.222-0.343-0.445-0.257-0.667c0.085-0.222,0.171-0.334,0.257-0.334L692.989,410.898z"/>
<path fill="#FECB33" d="M693.861,426.795c-0.29,0.056-0.582,0.092-0.878,0.108C693.225,426.455,693.48,426.11,693.861,426.795z"/>
<path fill="#FECB00" d="M700.031,417.859c-0.027-0.322-0.039-0.644-0.036-0.967c0.336,0,0.672,0,1.009,0
	c0.006,0.321-0.009,0.64-0.046,0.956c-0.002-0.002-0.464,0.036-0.464,0.036L700.031,417.859z"/>
<path fill="#FECB33" d="M705.971,414.901c0.019,0.329,0.028,0.659,0.029,0.988c-0.334,0.347-0.667,0.363-1-0.001
	c0.004-0.342,0.007-0.684,0.011-1.027C705.331,414.88,705.651,414.893,705.971,414.901z"/>
<path fill="#FECB00" d="M705,415.888c0.333,0.001,0.667,0.001,1,0.001c0,0.333,0,0.667,0,1.001c-0.333,0-0.667-0.001-1,0.002
	C705,416.559,705,416.224,705,415.888z"/>
<path fill="#FECB00" d="M693,410.89c0,0.333,0,0.667,0,1.001c-0.333,0-0.667,0-1,0c0-0.333,0-0.667,0-1.001
	C692.334,410.889,692.667,410.889,693,410.89z"/>
<path fill="#FECB00" d="M674.017,410.896c-0.01,0.335-0.02,0.671-0.03,1.006c0,0,0.026-0.026,0.026-0.026
	c-0.321,0.311-0.654,0.339-1,0.042C673.348,411.578,673.683,411.237,674.017,410.896z"/>
<path fill="#FECB33" d="M673.013,411.918c0.333-0.014,0.666-0.028,1-0.042c0,0.343,0,0.687-0.001,1.03
	C673.68,412.577,673.346,412.248,673.013,411.918z"/>
<path fill="#FECB00" d="M686.994,408.888c0.001-0.333,0.002-0.667,0.003-1c0.321-0.008,0.64,0.007,0.957,0.048
	c0.039,0.317,0.057,0.634,0.051,0.953C687.669,408.888,687.331,408.888,686.994,408.888z"/>
</svg>
